<svg 
 xmlns="http://www.w3.org/2000/svg"
 xmlns:xlink="http://www.w3.org/1999/xlink"
 width="70px" height="76px">
<defs>
<linearGradient id="PSgrad_0" x1="0%" x2="0%" y1="100%" y2="0%">
  <stop offset="0%" stop-color="rgb(34,158,242)" stop-opacity="1" />
  <stop offset="100%" stop-color="rgb(0,255,240)" stop-opacity="1" />
</linearGradient>

</defs>
<path fill-rule="evenodd"  fill="url(#PSgrad_0)"
 d="M55.702,40.632 L50.077,44.211 L43.586,37.501 L50.077,30.790 L55.702,34.369 C56.567,35.264 57.000,36.159 57.000,37.501 C57.000,38.843 56.567,39.738 55.702,40.632 ZM19.788,13.343 L47.047,29.448 L41.423,35.264 L19.788,13.343 ZM14.163,63.001 C12.865,62.554 11.999,61.212 11.999,59.422 L11.999,15.580 C11.999,14.237 12.865,12.895 14.163,12.001 L39.259,37.501 L14.163,63.001 ZM47.047,45.554 L19.788,61.659 L41.423,39.738 L47.047,45.554 Z"/>
</svg>