<svg 
 xmlns="http://www.w3.org/2000/svg"
 xmlns:xlink="http://www.w3.org/1999/xlink"
 width="51px" height="48px">
<defs>
<linearGradient id="PSgrad_0" x1="0%" x2="0%" y1="100%" y2="0%">
  <stop offset="0%" stop-color="rgb(0,206,255)" stop-opacity="1" />
  <stop offset="100%" stop-color="rgb(0,255,238)" stop-opacity="1" />
</linearGradient>

</defs>
<path fill-rule="evenodd"  fill="url(#PSgrad_0)"
 d="M10.308,23.362 C10.000,23.897 10.004,24.479 10.272,24.936 L13.980,30.908 C14.941,32.172 16.069,30.970 16.137,30.895 L18.736,26.927 C20.012,25.000 22.482,24.533 24.286,25.880 C25.151,26.518 25.741,27.505 25.926,28.618 C26.110,29.732 25.873,30.879 25.268,31.802 L18.026,42.847 C17.173,44.123 15.798,44.871 14.341,44.851 C12.884,44.831 11.527,44.045 10.704,42.746 L0.841,26.861 C-0.265,25.235 -0.283,23.025 0.799,21.380 L13.494,2.024 C14.909,-0.122 17.654,-0.644 19.663,0.850 C20.622,1.559 21.278,2.655 21.483,3.892 C21.688,5.129 21.425,6.404 20.752,7.429 L10.306,23.362 L10.308,23.362 ZM50.201,26.615 L37.510,45.973 C36.094,48.121 33.346,48.642 31.337,47.145 C30.377,46.435 29.720,45.339 29.515,44.101 C29.310,42.864 29.574,41.589 30.247,40.563 L40.689,24.635 C41.002,24.106 41.000,23.521 40.730,23.061 L37.022,17.091 C36.074,15.839 34.960,16.994 34.869,17.098 L32.264,21.072 C30.987,22.999 28.517,23.464 26.713,22.117 C25.850,21.479 25.259,20.493 25.075,19.379 C24.890,18.267 25.127,17.120 25.732,16.197 L32.974,5.148 C33.827,3.870 35.203,3.123 36.661,3.143 C38.118,3.164 39.475,3.950 40.298,5.251 L50.158,21.134 C51.263,22.765 51.282,24.966 50.201,26.615 L50.201,26.615 Z"/>
</svg>