<svg 
 xmlns="http://www.w3.org/2000/svg"
 xmlns:xlink="http://www.w3.org/1999/xlink"
 width="61px" height="60px">
<defs>
<linearGradient id="PSgrad_0" x1="0%" x2="0%" y1="100%" y2="0%">
  <stop offset="0%" stop-color="rgb(0,206,255)" stop-opacity="1" />
  <stop offset="100%" stop-color="rgb(0,255,238)" stop-opacity="1" />
</linearGradient>

</defs>
<path fill-rule="evenodd"  fill="url(#PSgrad_0)"
 d="M37.778,16.133 L42.378,16.133 L46.975,24.024 L33.182,24.024 L37.778,16.133 ZM22.196,16.118 L24.572,12.000 L33.763,12.000 L26.793,24.009 L22.196,16.118 ZM14.134,29.292 L12.000,25.535 L16.596,17.644 L23.325,29.292 L14.134,29.292 ZM22.197,43.010 L17.596,43.010 L13.000,35.119 L26.792,35.119 L22.197,43.010 ZM37.913,42.882 L35.514,47.000 L26.322,47.000 L33.316,34.991 L37.913,42.882 ZM45.602,29.508 L47.999,33.609 L43.404,41.499 L36.410,29.508 L45.602,29.508 Z"/>
</svg>