<svg 
 xmlns="http://www.w3.org/2000/svg"
 xmlns:xlink="http://www.w3.org/1999/xlink"
 width="56px" height="48px">
<defs>
<linearGradient id="PSgrad_0" x1="0%" x2="0%" y1="100%" y2="0%">
  <stop offset="0%" stop-color="rgb(34,158,242)" stop-opacity="1" />
  <stop offset="100%" stop-color="rgb(0,255,240)" stop-opacity="1" />
</linearGradient>

</defs>
<path fill-rule="evenodd"  fill="url(#PSgrad_0)"
 d="M41.970,48.007 L14.138,48.007 L-0.004,24.117 L14.251,0.057 L28.111,0.170 L15.043,22.257 L21.662,34.034 L35.917,34.034 L48.702,11.552 L55.999,24.004 L41.970,48.007 ZM39.594,0.114 L41.518,0.114 L47.627,10.763 L46.665,12.397 L39.594,0.114 ZM44.799,15.665 L35.804,0.114 L37.671,0.114 L45.760,14.031 L44.799,15.665 ZM43.158,18.539 L32.410,0.057 L33.938,0.057 L43.894,17.243 L43.158,18.539 ZM41.688,21.018 L40.726,21.018 L29.016,0.790 L29.468,0.001 L30.487,0.001 L42.197,20.173 L41.688,21.018 ZM38.859,21.018 L36.992,21.018 L27.206,4.114 L28.111,2.480 L38.859,21.018 ZM23.529,10.538 L24.377,9.016 L31.335,20.962 L29.695,20.962 L23.529,10.538 ZM35.069,20.962 L33.202,20.962 L25.339,7.382 L26.301,5.748 L35.069,20.962 Z"/>
</svg>