<?xml version="1.0" encoding="utf-8"?>
<svg width="20px" height="20px" viewBox="0 0 20 20" version="1.1" xmlns:xlink="http://www.w3.org/1999/xlink" xmlns="http://www.w3.org/2000/svg">
  <g id="车辆管理">
    <path d="M0 0L20 0L20 20L0 20L0 0Z" id="矩形" fill="#000000" fill-opacity="0" stroke="none" />
    <path d="M16.5572 4.11129L14.9649 4.11129C14.8918 4.11215 14.82 4.13261 14.7567 4.17069L14.0393 1.90733C13.8101 0.620198 12.9437 0 11.8809 0L5.13629 0C3.91516 0 3.17385 0.833267 2.97787 1.90653L2.25719 4.17683C2.19066 4.13484 2.11445 4.1122 2.03657 4.11129L0.443537 4.11129C0.325366 4.11181 0.212239 4.16099 0.129056 4.24801C0.0458726 4.33502 -0.00054862 4.45274 9.87544e-06 4.57525L9.87544e-06 4.97842C-0.000836295 5.23336 0.197616 5.44087 0.443537 5.44218L1.04694 5.5501C0.855929 5.9396 0.747435 6.38515 0.747435 6.90317L0.524717 9.57426C0.525028 9.65317 0.529939 9.732 0.539425 9.8103C0.530041 9.85988 0.525118 9.91026 0.524717 9.96079L0.524717 13.1723C0.523803 13.3909 0.606685 13.6009 0.75513 13.7561C0.903574 13.9113 1.10542 13.9991 1.31627 14L2.52422 14C2.73494 13.999 2.93663 13.9111 3.08491 13.7559C3.23318 13.6007 3.31588 13.3907 3.31481 13.1723L3.31481 12.14L13.6997 12.14L13.6997 13.1723C13.6988 13.3909 13.7817 13.6009 13.9301 13.7561C14.0785 13.9113 14.2804 13.9991 14.4912 14L15.6994 14C15.9102 13.9991 16.112 13.9113 16.2605 13.7561C16.4089 13.6008 16.4917 13.3908 16.4907 13.1723L16.4907 9.96C16.4903 9.90947 16.4854 9.8591 16.476 9.80951C16.4851 9.73117 16.49 9.65237 16.4907 9.57347L16.2671 6.90317C16.2671 6.38337 16.1584 5.93802 15.967 5.54693L16.5572 5.44218C16.803 5.44076 17.0012 5.23307 17 4.97822L17 4.57525C17.0008 4.45278 16.9546 4.335 16.8715 4.24794C16.7885 4.16088 16.6753 4.1117 16.5572 4.11129ZM3.50926 3.63604L4.03626 2.16772L4.0439 2.13347C4.09643 1.83644 4.21371 1.78396 4.38638 1.55426L12.6392 1.55426C12.8144 1.7901 12.923 1.8501 12.9708 2.1301L13.5056 3.63505L13.7016 4.45307C13.6577 5.05208 12.9702 5.52455 12.398 5.52455L4.61712 5.52455C4.04409 5.52455 3.35645 5.05208 3.31252 4.45307L3.50926 3.63604ZM3.87887 10.6186C3.21701 10.6186 2.68085 10.057 2.68085 9.36455C2.68085 8.67208 3.21701 8.11049 3.87887 8.11049C4.54072 8.11049 5.0767 8.67109 5.0767 9.36455C5.0767 10.058 4.54053 10.6186 3.87887 10.6186ZM10.5717 9.69307C10.5721 9.79163 10.5347 9.8863 10.4677 9.95621C10.4007 10.0261 10.3096 10.0655 10.2145 10.0657L6.85272 10.0657C6.65528 10.0645 6.4961 9.89775 6.49705 9.69307L6.49705 8.64356C6.49675 8.54527 6.53414 8.45088 6.60098 8.38117C6.66783 8.31146 6.75866 8.27214 6.85348 8.27188L10.2153 8.27188C10.4126 8.27264 10.5721 8.43896 10.5717 8.64356L10.5717 9.69307ZM13.1366 10.6184C12.4747 10.6184 11.938 10.0568 11.938 9.36436C11.938 8.67188 12.4747 8.1103 13.1366 8.1103C13.7984 8.1103 14.3346 8.67089 14.3346 9.36436C14.3346 10.0578 13.7984 10.6184 13.1366 10.6184Z" transform="translate(2 3)" id="形状" fill="#66FFFF" stroke="none" />
  </g>
</svg>