<?xml version="1.0" encoding="utf-8"?>
<svg width="106px" height="41px" viewBox="0 0 106 41" version="1.1" xmlns:xlink="http://www.w3.org/1999/xlink" xmlns="http://www.w3.org/2000/svg">
  <defs>
    <linearGradient x1="0.5" y1="0" x2="0.5" y2="1" id="gradient_1">
      <stop offset="0" stop-color="#002C41" />
      <stop offset="0.49980438" stop-color="#000A25" />
      <stop offset="1" stop-color="#002139" />
    </linearGradient>
    <linearGradient x1="-0.03476095" y1="1" x2="-0.03476095" y2="0.17819144" id="gradient_2">
      <stop offset="0" stop-color="#0DD5E4" />
      <stop offset="0.68232274" stop-color="#077997" />
      <stop offset="1" stop-color="#044E73" stop-opacity="0" />
    </linearGradient>
    <linearGradient x1="-0.03476095" y1="1" x2="-0.03476095" y2="0.17819144" id="gradient_3">
      <stop offset="0" stop-color="#044E73" stop-opacity="0" />
      <stop offset="0.3176773" stop-color="#077997" />
      <stop offset="1" stop-color="#0DD5E4" />
    </linearGradient>
    <linearGradient x1="-0.020727772" y1="1" x2="0.98893386" y2="1" id="gradient_4">
      <stop offset="0" stop-color="#0DD5E4" />
      <stop offset="0.49868113" stop-color="#000B26" />
      <stop offset="1" stop-color="#0DD5E4" />
    </linearGradient>
    <linearGradient x1="-0.03476095" y1="1" x2="1" y2="1" id="gradient_5">
      <stop offset="0" stop-color="#0DD5E4" />
      <stop offset="0.68232274" stop-color="#077997" />
      <stop offset="1" stop-color="#044E73" stop-opacity="0" />
    </linearGradient>
    <filter filterUnits="userSpaceOnUse" color-interpolation-filters="sRGB" id="filter_1">
      <feFlood flood-opacity="0" result="BackgroundImageFix" />
      <feBlend mode="normal" in="SourceGraphic" in2="BackgroundImageFix" result="shape" />
      <feColorMatrix in="SourceAlpha" type="matrix" values="0 0 0 0 0 0 0 0 0 0 0 0 0 0 0 0 0 0 127 0" result="hardAlpha" />
      <feOffset dx="0" dy="0" />
      <feGaussianBlur stdDeviation="2" />
      <feComposite in2="hardAlpha" operator="arithmetic" k2="-1" k3="1" />
      <feColorMatrix type="matrix" values="0 0 0 0 0 0 0 0 0 0.8784314 0 0 0 0 0.85882354 0 0 0 1 0" />
      <feBlend mode="normal" in2="shape" result="effect0_innerShadow" />
    </filter>
    <path d="M10.3801 0L92.3009 0L103 10.6472L103 26.7707L92.4691 38L10.3897 38L0 27.8643L0 10.0622L10.3801 0Z" transform="translate(1 1)" id="path_1" />
    <path d="M1.5 3C2.32843 3 3 2.32843 3 1.5C3 0.671573 2.32843 0 1.5 0C0.671573 0 0 0.671573 0 1.5C0 2.32843 0.671573 3 1.5 3Z" transform="matrix(1 0 0 1 -6.5260026E-14 -6.863788E-14)" id="path_2" />
    <path d="M1.5 3C2.32843 3 3 2.32843 3 1.5C3 0.671573 2.32843 0 1.5 0C0.671573 0 0 0.671573 0 1.5C0 2.32843 0.671573 3 1.5 3Z" transform="matrix(-1 0 0 1 104.930305 -6.863788E-14)" id="path_3" />
    <clipPath id="clip_1">
      <use xlink:href="#path_1" />
    </clipPath>
    <clipPath id="clip_2">
      <use xlink:href="#path_2" />
    </clipPath>
    <clipPath id="clip_3">
      <use xlink:href="#path_3" />
    </clipPath>
  </defs>
  <g id="编组-75" transform="translate(0.30493164 0.30493164)">
    <g id="矩形">
      <use stroke="none" fill="url(#gradient_1)" fill-opacity="0.5" xlink:href="#path_1" fill-rule="evenodd" filter="url(#filter_1)" />
      <g clip-path="url(#clip_1)">
        <use xlink:href="#path_1" fill="none" stroke="#23FFF9" stroke-opacity="0.31176472" stroke-width="1.219802" />
      </g>
    </g>
    <path d="M0.180089 9L0.180089 0" transform="translate(52.819912 30)" id="路径-22" fill="none" fill-rule="evenodd" stroke="url(#gradient_2)" stroke-opacity="0.5" stroke-width="0.5" />
    <path d="M0.180089 9L0.180089 0" transform="translate(52.819912 1)" id="路径-22" fill="none" fill-rule="evenodd" stroke="url(#gradient_3)" stroke-opacity="0.5" stroke-width="0.5" />
    <g id="编组-74">
      <g id="编组-73">
        <g id="编组-71">
          <g id="编组-70" transform="translate(0 27.235472)">
            <path d="M100.409 9.2811L91.5851 0L9.33668 0L0 9.2811" transform="matrix(1 0 0 -1 2.0169954 11.402496)" id="路径-45" fill="none" fill-rule="evenodd" stroke="url(#gradient_4)" stroke-width="0.609901" stroke-linecap="round" />
            <g id="椭圆形备份-19">
              <use stroke="none" fill="#064459" xlink:href="#path_2" fill-rule="evenodd" />
              <g clip-path="url(#clip_2)">
                <use xlink:href="#path_2" fill="none" stroke="#0BC0DC" stroke-width="1.219802" />
              </g>
            </g>
            <g id="椭圆形备份-19">
              <use stroke="none" fill="#064459" xlink:href="#path_3" fill-rule="evenodd" />
              <g clip-path="url(#clip_3)">
                <use xlink:href="#path_3" fill="none" stroke="#0BC0DC" stroke-width="1.219802" />
              </g>
            </g>
          </g>
          <g id="编组-70" transform="matrix(1 0 0 -1 0 12.613001)">
            <path d="M100.409 9.2811L91.5851 0L9.33668 0L0 9.2811" transform="matrix(1 0 0 -1 2.0169954 11.402496)" id="路径-45" fill="none" fill-rule="evenodd" stroke="url(#gradient_4)" stroke-width="0.609901" stroke-linecap="round" />
            <g id="椭圆形备份-19">
              <use stroke="none" fill="#064459" xlink:href="#path_2" fill-rule="evenodd" />
              <g clip-path="url(#clip_2)">
                <use xlink:href="#path_2" fill="none" stroke="#0BC0DC" stroke-width="1.219802" />
              </g>
            </g>
            <g id="椭圆形备份-19">
              <use stroke="none" fill="#064459" xlink:href="#path_3" fill-rule="evenodd" />
              <g clip-path="url(#clip_3)">
                <use xlink:href="#path_3" fill="none" stroke="#0BC0DC" stroke-width="1.219802" />
              </g>
            </g>
          </g>
        </g>
        <g id="编组-72" transform="translate(0 18.295307)">
          <path d="M13.8668 0.265174L0 0.265174" transform="translate(1.8008888 1.5152819)" id="路径-46" fill="none" fill-rule="evenodd" stroke="url(#gradient_5)" stroke-width="0.609901" stroke-linecap="round" />
          <g id="椭圆形备份-19">
            <use stroke="none" fill="#064459" xlink:href="#path_2" fill-rule="evenodd" />
            <g clip-path="url(#clip_2)">
              <use xlink:href="#path_2" fill="none" stroke="#0BC0DC" stroke-width="1.219802" />
            </g>
          </g>
          <path d="M13.8668 0.265174L0 0.265174" transform="matrix(-1 0 0 1 102.722694 1.5152819)" id="路径-46" fill="none" fill-rule="evenodd" stroke="url(#gradient_5)" stroke-width="0.609901" stroke-linecap="round" />
          <g id="椭圆形备份-19">
            <use stroke="none" fill="#064459" xlink:href="#path_3" fill-rule="evenodd" />
            <g clip-path="url(#clip_3)">
              <use xlink:href="#path_3" fill="none" stroke="#0BC0DC" stroke-width="1.219802" />
            </g>
          </g>
        </g>
      </g>
    </g>
  </g>
</svg>