<?xml version="1.0" encoding="utf-8"?>
<svg width="62px" height="62px" viewBox="0 0 62 62" version="1.1" xmlns:xlink="http://www.w3.org/1999/xlink" xmlns="http://www.w3.org/2000/svg">
  <defs>
    <linearGradient x1="1" y1="0.08060739" x2="-0.23672363" y2="3.8671038" id="gradient_1">
      <stop offset="0" stop-color="#12FEE0" />
      <stop offset="1" stop-color="#026DB2" />
    </linearGradient>
    <linearGradient x1="-0.28552914" y1="1.1348785" x2="1.2915226" y2="-0.2786678" id="gradient_2">
      <stop offset="0" stop-color="#12FEE0" />
      <stop offset="1" stop-color="#026DB2" />
    </linearGradient>
    <linearGradient x1="0.7794356" y1="0.26449767" x2="0" y2="1.418922" id="gradient_3">
      <stop offset="0" stop-color="#12FEE0" />
      <stop offset="1" stop-color="#026DB2" />
    </linearGradient>
    <filter filterUnits="userSpaceOnUse" color-interpolation-filters="sRGB" id="filter_1">
      <feFlood flood-opacity="0" result="BackgroundImageFix" />
      <feBlend mode="normal" in="SourceGraphic" in2="BackgroundImageFix" result="shape" />
      <feGaussianBlur stdDeviation="1.7333333" result="effect0_gaussianBlur" />
    </filter>
    <path d="M0 0L63 0L63 63L0 63L0 0Z" id="path_1" />
    <clipPath id="mask_1">
      <use xlink:href="#path_1" />
    </clipPath>
  </defs>
  <g id="webicon-餐饮">
    <g id="webicon-能耗备份" transform="translate(-0.5 -0.5)">
      <path d="M0 0L63 0L63 63L0 63L0 0Z" id="蒙版" fill="none" fill-rule="evenodd" stroke="none" />
      <g clip-path="url(#mask_1)">
        <g id="webicon-能耗备份" transform="translate(5.6 4.9)">
          <g id="编组-2">
            <g id="编组" transform="translate(0 0.35)">
              <g id="编组-23">
                <path d="M25.375 23.3176C39.3892 23.3176 50.75 18.0977 50.75 11.6588C50.75 5.21981 39.3892 0 25.375 0C11.3608 0 0 5.21981 0 11.6588C0 18.0977 11.3608 23.3176 25.375 23.3176Z" transform="translate(0 28.804054)" id="椭圆形" fill="#000000" fill-opacity="0.2" fill-rule="evenodd" stroke="none" filter="url(#filter_1)" />
                <g id="编组-8">
                  <path d="M28.045 1.73176L43.736 10.791Q44.0765 10.9876 44.3884 11.2269Q44.7004 11.4663 44.9784 11.7443Q45.2564 12.0223 45.4958 12.3343Q45.7351 12.6462 45.9317 12.9868Q46.1283 13.3273 46.2788 13.6905Q46.4293 14.0538 46.531 14.4336Q46.6328 14.8134 46.6841 15.2032Q46.7355 15.5931 46.7355 15.9863L46.7355 34.1047Q46.7355 34.4979 46.6841 34.8877Q46.6328 35.2775 46.531 35.6573Q46.4293 36.0371 46.2788 36.4004Q46.1283 36.7636 45.9317 37.1042Q45.7351 37.4447 45.4958 37.7566Q45.2564 38.0686 44.9784 38.3466Q44.7004 38.6246 44.3884 38.864Q44.0765 39.1033 43.736 39.2999L28.045 48.3591Q27.7044 48.5557 27.3412 48.7062Q26.9779 48.8567 26.5981 48.9585Q26.2183 49.0602 25.8285 49.1115Q25.4387 49.1629 25.0455 49.1629Q24.6523 49.1629 24.2624 49.1115Q23.8726 49.0602 23.4928 48.9585Q23.113 48.8567 22.7497 48.7062Q22.3865 48.5557 22.046 48.3591L6.35495 39.2999Q6.01444 39.1033 5.7025 38.864Q5.39055 38.6246 5.11252 38.3466Q4.83449 38.0686 4.59513 37.7566Q4.35577 37.4447 4.15917 37.1042Q3.96257 36.7636 3.8121 36.4004Q3.66163 36.0371 3.55987 35.6573Q3.4581 35.2775 3.40678 34.8877Q3.35545 34.4979 3.35545 34.1047L3.35545 15.9863Q3.35545 15.5931 3.40678 15.2032Q3.4581 14.8134 3.55987 14.4336Q3.66163 14.0538 3.8121 13.6905Q3.96257 13.3273 4.15917 12.9868Q4.35577 12.6462 4.59513 12.3343Q4.83449 12.0223 5.11252 11.7443Q5.39055 11.4663 5.7025 11.2269Q6.01444 10.9876 6.35495 10.791L22.046 1.73176Q22.3865 1.53516 22.7497 1.3847Q23.113 1.23423 23.4928 1.13246Q23.8726 1.03069 24.2624 0.979371Q24.6523 0.928049 25.0455 0.928049Q25.4387 0.928049 25.8285 0.979371Q26.2183 1.03069 26.5981 1.13246Q26.9779 1.23423 27.3412 1.3847Q27.7044 1.53516 28.045 1.73176Z" transform="translate(0.65909094 0)" id="多边形" fill="url(#gradient_1)" fill-rule="evenodd" stroke="none" />
                  <path d="M23.4313 1.73176L35.1268 8.48415Q35.4673 8.68075 35.7793 8.92011Q36.0912 9.15947 36.3692 9.4375Q36.6473 9.71553 36.8866 10.0275Q37.126 10.3394 37.3226 10.6799Q37.5192 11.0205 37.6696 11.3837Q37.8201 11.747 37.9219 12.1268Q38.0236 12.5066 38.075 12.8964Q38.1263 13.2862 38.1263 13.6794L38.1263 27.1842Q38.1263 27.5774 38.075 27.9672Q38.0236 28.3571 37.9219 28.7369Q37.8201 29.1167 37.6696 29.4799Q37.5192 29.8432 37.3226 30.1837Q37.126 30.5242 36.8866 30.8362Q36.6473 31.1481 36.3692 31.4261Q36.0912 31.7042 35.7793 31.9435Q35.4673 32.1829 35.1268 32.3795L23.4313 39.1319Q23.0908 39.3285 22.7275 39.4789Q22.3643 39.6294 21.9845 39.7312Q21.6047 39.8329 21.2148 39.8843Q20.825 39.9356 20.4318 39.9356Q20.0386 39.9356 19.6488 39.8843Q19.259 39.8329 18.8792 39.7312Q18.4994 39.6294 18.1361 39.4789Q17.7728 39.3285 17.4323 39.1319L5.73684 32.3795Q5.39633 32.1829 5.08439 31.9435Q4.77244 31.7042 4.49441 31.4261Q4.21638 31.1481 3.97702 30.8362Q3.73766 30.5242 3.54106 30.1837Q3.34446 29.8432 3.19399 29.4799Q3.04352 29.1167 2.94176 28.7369Q2.83999 28.3571 2.78867 27.9672Q2.73734 27.5774 2.73734 27.1842L2.73734 13.6794Q2.73734 13.2862 2.78867 12.8964Q2.83999 12.5066 2.94176 12.1268Q3.04352 11.747 3.19399 11.3837Q3.34446 11.0205 3.54106 10.6799Q3.73766 10.3394 3.97702 10.0275Q4.21638 9.71553 4.49441 9.4375Q4.77244 9.15947 5.08439 8.92011Q5.39633 8.68075 5.73684 8.48415L17.4323 1.73176Q17.7728 1.53516 18.1361 1.3847Q18.4994 1.23423 18.8792 1.13246Q19.259 1.03069 19.6488 0.979371Q20.0386 0.928049 20.4318 0.928049Q20.825 0.928049 21.2148 0.979371Q21.6047 1.03069 21.9845 1.13246Q22.3643 1.23423 22.7275 1.3847Q23.0908 1.53516 23.4313 1.73176L23.4313 1.73176Z" transform="translate(5.2727275 4.6136365)" id="多边形" fill="url(#gradient_2)" fill-rule="evenodd" stroke="none" />
                  <g id="编组-7" transform="translate(4.6136365 1.3181819)" opacity="0.5">
                    <path d="M0 23.7273L42.1162 0" transform="translate(2.7045033E-13 11.863636)" id="路径-34" fill="none" fill-rule="evenodd" stroke="#66FFFF" stroke-width="2" />
                    <path d="M0 23.7273L41.4571 -6.7437e-13" transform="matrix(-1 0 0 1 42.116165 11.863636)" id="路径-34" fill="none" fill-rule="evenodd" stroke="#66FFFF" stroke-width="2" />
                    <path d="M0.329545 3.74644e-13L0.329545 47.4545" transform="translate(20.761364 0)" id="路径-33" fill="none" fill-rule="evenodd" stroke="#66FFFF" stroke-width="2" stroke-linecap="round" />
                  </g>
                  <path d="M0.659091 1.31818C1.0231 1.31818 1.31818 1.0231 1.31818 0.659091C1.31818 0.295085 1.0231 0 0.659091 0C0.295085 0 0 0.295085 0 0.659091C0 1.0231 0.295085 1.31818 0.659091 1.31818Z" transform="translate(25.045454 24.386364)" id="椭圆形" fill="#66FFFF" fill-rule="evenodd" stroke="none" />
                </g>
              </g>
              <path d="M11.375 22.75C17.6572 22.75 22.75 17.6572 22.75 11.375C22.75 5.09276 17.6572 0 11.375 0C5.09276 0 0 5.09276 0 11.375C0 17.6572 5.09276 22.75 11.375 22.75Z" transform="translate(14 14)" id="椭圆形" fill="url(#gradient_3)" fill-rule="evenodd" stroke="none" />
            </g>
          </g>
        </g>
      </g>
    </g>
  </g>
</svg>