<?xml version="1.0" encoding="utf-8"?>
<svg width="130px" height="130px" viewBox="0 0 130 130" version="1.1" xmlns:xlink="http://www.w3.org/1999/xlink" xmlns="http://www.w3.org/2000/svg">
  <defs>
    <path d="M64 0L119.426 32L119.426 96L64 128L8.57437 96L8.57437 32L64 0Z" id="path_1" />
    <path d="M53.5 0L99.8324 26.75L99.8324 80.25L53.5 107L7.16764 80.25L7.16764 26.75L53.5 0Z" id="path_2" />
    <clipPath id="clip_1">
      <use xlink:href="#path_1" />
    </clipPath>
    <clipPath id="mask_1">
      <use xlink:href="#path_2" />
    </clipPath>
  </defs>
  <g id="编组-12备份-4" transform="translate(1 1)">
    <g id="编组-22" transform="translate(14 14)">
      <path d="M0 100L6.36063 93.6394M94.7758 5.22423L100 0" id="形状" fill="none" fill-rule="evenodd" stroke="#BCD21E" stroke-opacity="0.5" stroke-width="2" />
      <path d="M0 100L6.36063 93.6394M94.7758 5.22423L100 0" transform="matrix(-1 0 0 1 100 0)" id="形状" fill="none" fill-rule="evenodd" stroke="#BCD21E" stroke-opacity="0.5" stroke-width="2" />
    </g>
    <g id="多边形">
      <use stroke="none" fill="#030C31" fill-opacity="0.5019608" xlink:href="#path_1" fill-rule="evenodd" />
      <g clip-path="url(#clip_1)">
        <use xlink:href="#path_1" fill="none" stroke="#BCD21E" stroke-width="4" />
      </g>
    </g>
    <g id="编组-19" transform="translate(11 11)">
      <path d="M53.5 0L99.8324 26.75L99.8324 80.25L53.5 107L7.16764 80.25L7.16764 26.75L53.5 0Z" id="蒙版" fill="#030C31" fill-opacity="0.5019608" fill-rule="evenodd" stroke="none" />
      <g clip-path="url(#mask_1)">
        <g id="编组-21" transform="matrix(0.8660254 -0.5 0.5 0.8660254 -66.37049 53.368603)" opacity="0.3">
          <path d="M0 1.5L195.5 1" transform="translate(0 25)" id="路径-19" fill="none" fill-rule="evenodd" stroke="#C0D71C" stroke-width="1" />
          <path d="M0 1.5L195.5 1" transform="translate(0 29)" id="路径-19" fill="none" fill-rule="evenodd" stroke="#C0D71C" stroke-width="1" />
          <path d="M0 1.5L195.5 1" id="路径-19备份" fill="none" fill-rule="evenodd" stroke="#C0D71C" stroke-width="1" />
          <path d="M0 1.5L195.5 1" transform="translate(0 74)" id="路径-19" fill="none" fill-rule="evenodd" stroke="#C0D71C" stroke-width="1" />
          <path d="M0 1.5L195.5 1" transform="translate(0 39)" id="路径-19" fill="none" fill-rule="evenodd" stroke="#C0D71C" stroke-width="1" />
          <path d="M0 1.5L195.5 1" transform="translate(0 10)" id="路径-19备份-2" fill="none" fill-rule="evenodd" stroke="#C0D71C" stroke-width="1" />
          <path d="M0 1.5L195.5 1" transform="translate(0 5)" id="路径-19备份" fill="none" fill-rule="evenodd" stroke="#C0D71C" stroke-width="1" />
          <path d="M0 1.5L195.5 1" transform="translate(0 15)" id="路径-19备份-2" fill="none" fill-rule="evenodd" stroke="#C0D71C" stroke-width="1" />
          <path d="M0 1.5L195.5 1" transform="translate(0 79)" id="路径-19" fill="none" fill-rule="evenodd" stroke="#C0D71C" stroke-width="1" />
          <path d="M0 1.5L195.5 1" transform="translate(0 49)" id="路径-19" fill="none" fill-rule="evenodd" stroke="#C0D71C" stroke-width="1" />
          <path d="M0 1.5L195.5 1" transform="translate(0 20)" id="路径-19备份-3" fill="none" fill-rule="evenodd" stroke="#C0D71C" stroke-width="1" />
          <path d="M0 1.5L195.5 1" transform="translate(0 83)" id="路径-19" fill="none" fill-rule="evenodd" stroke="#C0D71C" stroke-width="1" />
          <path d="M0 1.5L195.5 1" transform="translate(0 59)" id="路径-19" fill="none" fill-rule="evenodd" stroke="#C0D71C" stroke-width="1" />
          <path d="M0 1.5L195.5 1" transform="translate(0 34)" id="路径-19" fill="none" fill-rule="evenodd" stroke="#C0D71C" stroke-width="1" />
          <path d="M0 1.5L195.5 1" transform="translate(0 44)" id="路径-19" fill="none" fill-rule="evenodd" stroke="#C0D71C" stroke-width="1" />
          <path d="M0 1.5L195.5 1" transform="translate(0 54)" id="路径-19" fill="none" fill-rule="evenodd" stroke="#C0D71C" stroke-width="1" />
          <path d="M0 1.5L195.5 1" transform="translate(0 64)" id="路径-19" fill="none" fill-rule="evenodd" stroke="#C0D71C" stroke-width="1" />
          <path d="M0 1.5L195.5 1" transform="translate(0 88)" id="路径-19" fill="none" fill-rule="evenodd" stroke="#C0D71C" stroke-width="1" />
          <path d="M0 1.5L195.5 1" transform="translate(0 69)" id="路径-19" fill="none" fill-rule="evenodd" stroke="#C0D71C" stroke-width="1" />
          <path d="M0 1.5L195.5 1" transform="translate(0 93)" id="路径-19" fill="none" fill-rule="evenodd" stroke="#C0D71C" stroke-width="1" />
          <path d="M0 1.5L195.5 1" transform="translate(0 98)" id="路径-19" fill="none" fill-rule="evenodd" stroke="#C0D71C" stroke-width="1" />
          <path d="M0 1.5L195.5 1" transform="translate(0 103)" id="路径-19" fill="none" fill-rule="evenodd" stroke="#C0D71C" stroke-width="1" />
          <path d="M0 1.5L195.5 1" transform="translate(0 108)" id="路径-19" fill="none" fill-rule="evenodd" stroke="#C0D71C" stroke-width="1" />
        </g>
      </g>
    </g>
  </g>
</svg>