<?xml version="1.0" encoding="utf-8"?>
<svg width="62px" height="62px" viewBox="0 0 62 62" version="1.1" xmlns:xlink="http://www.w3.org/1999/xlink" xmlns="http://www.w3.org/2000/svg">
  <defs>
    <linearGradient x1="0.676346" y1="0.5" x2="-0.16899948" y2="1.4362465" id="gradient_1">
      <stop offset="0" stop-color="#12FEE0" />
      <stop offset="1" stop-color="#026DB2" />
    </linearGradient>
    <linearGradient x1="-0.28552914" y1="1.1348785" x2="1.2915226" y2="-0.2786678" id="gradient_2">
      <stop offset="0" stop-color="#12FEE0" />
      <stop offset="1" stop-color="#026DB2" />
    </linearGradient>
    <linearGradient x1="0.6367267" y1="0.5" x2="-0.89340746" y2="1.969677" id="gradient_3">
      <stop offset="0" stop-color="#12FEE0" />
      <stop offset="1" stop-color="#026DB2" />
    </linearGradient>
    <filter filterUnits="userSpaceOnUse" color-interpolation-filters="sRGB" id="filter_1">
      <feFlood flood-opacity="0" result="BackgroundImageFix" />
      <feBlend mode="normal" in="SourceGraphic" in2="BackgroundImageFix" result="shape" />
      <feGaussianBlur stdDeviation="2.4266667" result="effect0_gaussianBlur" />
    </filter>
    <path d="M0 0L63 0L63 63L0 63L0 0Z" id="path_1" />
    <clipPath id="mask_1">
      <use xlink:href="#path_1" />
    </clipPath>
  </defs>
  <g id="webicon-餐饮">
    <g id="编组-15" transform="translate(-0.5 -0.5)">
      <path d="M0 0L63 0L63 63L0 63L0 0Z" id="蒙版" fill="none" fill-rule="evenodd" stroke="none" />
      <g clip-path="url(#mask_1)">
        <g id="编组-15" transform="translate(4.2000003 4.9)">
          <path d="M26.0015 23.8933C40.3618 23.8933 52.0031 18.5446 52.0031 11.9467C52.0031 5.3487 40.3618 0 26.0015 0C11.6413 0 0 5.3487 0 11.9467C0 18.5446 11.6413 23.8933 26.0015 23.8933Z" transform="translate(0.7 27.300001)" id="椭圆形" fill="#000000" fill-opacity="0.12" fill-rule="evenodd" stroke="none" filter="url(#filter_1)" />
          <g id="webicon-家居备份-3">
            <g id="编组-56">
              <g id="编组-12" transform="translate(0.459375 0.4375)">
                <g id="编组-9">
                  <path d="M4.77356 0L0 13.3868L9.02509 4.22834L4.77356 0Z" transform="translate(27.533499 30.978811)" id="路径" fill="#0F5896" fill-rule="evenodd" stroke="none" />
                  <path d="M22.3771 0L0 30.9324L11.525 43.2056L22.3771 0Z" transform="translate(31.53563 4.8398247E-15)" id="路径" fill="url(#gradient_1)" fill-rule="evenodd" stroke="none" />
                  <path d="M38.9831 0L0 25.2772L12.6038 44.3657L17.3774 30.9788L38.9831 0Z" transform="translate(14.9296875 4.8398247E-15)" id="路径" fill="url(#gradient_2)" fill-rule="evenodd" stroke="none" />
                  <path d="M53.9128 0L0 26.3967L15.7823 26.3967L53.9128 0Z" transform="matrix(1 0 0 1 0 1.2291618E-15)" id="路径" fill="url(#gradient_3)" fill-rule="evenodd" stroke="none" />
                </g>
              </g>
            </g>
          </g>
        </g>
      </g>
    </g>
  </g>
</svg>