<?xml version="1.0" encoding="utf-8"?>
<svg width="62px" height="62px" viewBox="0 0 62 62" version="1.1" xmlns:xlink="http://www.w3.org/1999/xlink" xmlns="http://www.w3.org/2000/svg">
  <defs>
    <linearGradient x1="0" y1="1.1296197" x2="1" y2="0" id="gradient_1">
      <stop offset="0" stop-color="#12FEE0" />
      <stop offset="1" stop-color="#027994" />
    </linearGradient>
    <linearGradient x1="0.7794356" y1="0.26449767" x2="0" y2="1.418922" id="gradient_2">
      <stop offset="0" stop-color="#12FEE0" />
      <stop offset="1" stop-color="#026DB2" />
    </linearGradient>
    <linearGradient x1="0.5" y1="0" x2="0.5" y2="1" id="gradient_3">
      <stop offset="0" stop-color="#12FEE0" />
      <stop offset="1" stop-color="#026DB2" />
    </linearGradient>
    <filter filterUnits="userSpaceOnUse" color-interpolation-filters="sRGB" id="filter_1">
      <feFlood flood-opacity="0" result="BackgroundImageFix" />
      <feBlend mode="normal" in="SourceGraphic" in2="BackgroundImageFix" result="shape" />
      <feGaussianBlur stdDeviation="2.0800002" result="effect0_gaussianBlur" />
    </filter>
    <path d="M0 0L63 0L63 63L0 63L0 0Z" id="path_1" />
    <clipPath id="mask_1">
      <use xlink:href="#path_1" />
    </clipPath>
  </defs>
  <g id="webicon-餐饮">
    <g id="编组-18" transform="translate(-0.5 -0.5)">
      <path d="M0 0L63 0L63 63L0 63L0 0Z" id="蒙版" fill="none" fill-rule="evenodd" stroke="none" />
      <g clip-path="url(#mask_1)">
        <g id="编组-18" transform="translate(9.1 7.7)">
          <path d="M22.75 23.8933C35.3145 23.8933 45.5 18.5446 45.5 11.9467C45.5 5.3487 35.3145 0 22.75 0C10.1855 0 0 5.3487 0 11.9467C0 18.5446 10.1855 23.8933 22.75 23.8933Z" transform="translate(0 23.800001)" id="椭圆形备份" fill="#000000" fill-opacity="0.2" fill-rule="evenodd" stroke="none" filter="url(#filter_1)" />
          <g id="webicon-考勤" transform="translate(2.8 0)">
            <g id="编组-17备份">
              <g id="分组-57" transform="translate(1.4 0)">
                <g id="分组-19" transform="translate(0.35 0.35)">
                  <path d="M0 0L22.224 0L22.224 24.4823Q22.224 24.6786 22.2144 24.8747Q22.2048 25.0709 22.1855 25.2663Q22.1663 25.4617 22.1374 25.656Q22.1086 25.8502 22.0703 26.0428Q22.032 26.2354 21.9843 26.4259Q21.9366 26.6163 21.8796 26.8042Q21.8226 26.9922 21.7564 27.177Q21.6903 27.3619 21.6151 27.5433Q21.54 27.7248 21.456 27.9023Q21.3721 28.0798 21.2795 28.253Q21.1869 28.4261 21.086 28.5946Q20.985 28.763 20.8759 28.9263Q20.7668 29.0895 20.6499 29.2473Q20.5329 29.405 20.4083 29.5568Q20.2838 29.7086 20.1519 29.8541Q20.02 29.9996 19.8812 30.1384Q19.7423 30.2773 19.5968 30.4091Q19.4513 30.541 19.2995 30.6656Q19.1477 30.7901 18.99 30.9071Q18.8323 31.0241 18.669 31.1332Q18.5058 31.2423 18.3373 31.3432Q18.1689 31.4442 17.9957 31.5367Q17.8225 31.6293 17.645 31.7133Q17.4675 31.7972 17.2861 31.8724Q17.1047 31.9475 16.9198 32.0137Q16.7349 32.0798 16.547 32.1368Q16.3591 32.1938 16.1686 32.2415Q15.9781 32.2892 15.7855 32.3276Q15.593 32.3659 15.3987 32.3947Q15.2045 32.4235 15.0091 32.4427Q14.8136 32.462 14.6175 32.4716Q14.4214 32.4813 14.225 32.4813L0 32.4813L0 0Z" transform="translate(15.385859 3.4190795)" id="矩形" fill="url(#gradient_1)" fill-rule="evenodd" stroke="none" />
                  <path d="M4.999 0L28.1281 0L30.7717 0L30.7717 27.1416Q30.7717 27.5001 30.7523 27.858Q30.7328 28.2159 30.694 28.5723Q30.6552 28.9287 30.5971 29.2824Q30.539 29.6361 30.4619 29.9862Q30.3847 30.3362 30.2887 30.6816Q30.1926 31.027 30.078 31.3666Q29.9634 31.7063 29.8305 32.0392Q29.6976 32.3721 29.5469 32.6973Q29.3961 33.0226 29.228 33.3392Q29.0598 33.6558 28.8748 33.9628Q28.6897 34.2698 28.4883 34.5663Q28.2868 34.8628 28.0696 35.1479Q27.8524 35.4331 27.62 35.7061Q27.3877 35.979 27.1409 36.239Q26.894 36.4989 26.6335 36.7451Q26.3729 36.9913 26.0994 37.223Q25.8259 37.4547 25.5402 37.6713Q25.2545 37.8878 24.9575 38.0885Q24.6605 38.2892 24.3531 38.4736Q24.0457 38.6579 23.7287 38.8253Q23.4117 38.9927 23.0861 39.1426Q22.7605 39.2926 22.4272 39.4246Q22.094 39.5567 21.7541 39.6705Q21.4141 39.7843 21.0686 39.8796Q20.723 39.9748 20.3727 40.0511Q20.0225 40.1274 19.6686 40.1847Q19.3147 40.2419 18.9583 40.2799Q18.6018 40.3178 18.2438 40.3364Q17.8859 40.355 17.5274 40.3541Q17.1689 40.3532 16.811 40.333Q16.4531 40.3127 16.0969 40.273Q15.7406 40.2333 15.387 40.1744L10.0264 39.2809Q9.76639 39.2376 9.50855 39.1829Q9.25071 39.1282 8.99552 39.0622Q8.74033 38.9962 8.48828 38.9191Q8.23624 38.842 7.98782 38.7539Q7.73941 38.6658 7.4951 38.5668Q7.25079 38.4679 7.01107 38.3583Q6.77134 38.2488 6.53666 38.1288Q6.30197 38.0088 6.07279 37.8786Q5.8436 37.7484 5.62035 37.6083Q5.3971 37.4682 5.18021 37.3184Q4.96333 37.1686 4.75323 37.0094Q4.54314 36.8503 4.34024 36.682Q4.13733 36.5138 3.94201 36.3368Q3.74669 36.1598 3.55933 35.9744Q3.37197 35.789 3.19293 35.5956Q3.01389 35.4022 2.84352 35.201Q2.67315 34.9999 2.51178 34.7915Q2.3504 34.5831 2.19833 34.3678Q2.04627 34.1525 1.9038 33.9308Q1.76133 33.709 1.62874 33.4812Q1.49615 33.2534 1.37369 33.02Q1.25122 32.7866 1.13913 32.5481Q1.02704 32.3095 0.925527 32.0663Q0.824018 31.823 0.733287 31.5755Q0.642557 31.3281 0.562781 31.0769Q0.483006 30.8256 0.414338 30.5712Q0.345671 30.3167 0.288245 30.0594Q0.230819 29.8022 0.184744 29.5427Q0.13867 29.2831 0.104036 29.0218Q0.0694017 28.7606 0.0462752 28.498Q0.0231488 28.2354 0.0115744 27.9721Q0 27.7088 0 27.4452L0 4.999Q0 4.87628 0.00602151 4.75371Q0.012043 4.63114 0.0240715 4.50901Q0.0361001 4.38688 0.0541066 4.26549Q0.0721132 4.1441 0.0960544 4.02374Q0.119996 3.90338 0.149814 3.78434Q0.179632 3.6653 0.215255 3.54787Q0.250879 3.43043 0.292221 3.31489Q0.333564 3.19934 0.380526 3.08597Q0.427489 2.97259 0.479957 2.86165Q0.532426 2.75072 0.590276 2.64249Q0.648125 2.53426 0.711215 2.429Q0.774305 2.32374 0.842483 2.2217Q0.910662 2.11967 0.983765 2.0211Q1.05687 1.92253 1.13472 1.82767Q1.21257 1.73281 1.29499 1.64188Q1.3774 1.55095 1.46417 1.46417Q1.55095 1.3774 1.64188 1.29499Q1.73281 1.21257 1.82767 1.13472Q1.92253 1.05687 2.0211 0.983765Q2.11967 0.910662 2.2217 0.842483Q2.32374 0.774305 2.429 0.711215Q2.53426 0.648125 2.64249 0.590276Q2.75072 0.532426 2.86165 0.479957Q2.97259 0.427489 3.08597 0.380526Q3.19934 0.333564 3.31489 0.292221Q3.43043 0.250879 3.54787 0.215255Q3.6653 0.179632 3.78434 0.149814Q3.90338 0.119996 4.02374 0.0960544Q4.1441 0.0721132 4.26549 0.0541066Q4.38688 0.0361001 4.50901 0.0240715Q4.63114 0.012043 4.75371 0.00602151Q4.87628 0 4.999 0Z" transform="translate(0 3.4190795)" id="矩形" fill="url(#gradient_2)" fill-rule="evenodd" stroke="none" />
                  <path d="M0 0L3.41908 0L3.41908 3.41908L0 3.41908L0 0Z" transform="translate(5.1286197 17.0954)" id="矩形" fill="#058AA7" fill-rule="evenodd" stroke="none" />
                  <path d="M0 0L3.41908 0L3.41908 3.41908L0 3.41908L0 0Z" transform="translate(13.676318 17.0954)" id="矩形" fill="#058AA7" fill-rule="evenodd" stroke="none" />
                  <path d="M0 0L3.41908 0L3.41908 3.41908L0 3.41908L0 0Z" transform="translate(20.514479 17.0954)" id="矩形" fill="#058AA7" fill-rule="evenodd" stroke="none" />
                  <path d="M0 0L3.41908 0L3.41908 3.41908L0 3.41908L0 0Z" transform="translate(5.1286197 25.643097)" id="矩形" fill="#058AA7" fill-rule="evenodd" stroke="none" />
                  <path d="M0 0L3.41908 0L3.41908 3.41908L0 3.41908L0 0Z" transform="translate(13.676318 25.643097)" id="矩形" fill="#058AA7" fill-rule="evenodd" stroke="none" />
                  <path d="M0 0L3.41908 0L3.41908 3.41908L0 3.41908L0 0Z" transform="translate(20.514479 25.643097)" id="矩形" fill="#058AA7" fill-rule="evenodd" stroke="none" />
                  <path d="M1.70854 0L1.71054 0Q1.79447 0 1.87801 0.00822708Q1.96154 0.0164542 2.04386 0.0328291Q2.12618 0.049204 2.2065 0.0735691Q2.28682 0.0979342 2.36437 0.130055Q2.44192 0.162175 2.51594 0.201742Q2.58996 0.241309 2.65975 0.287941Q2.72954 0.334573 2.79443 0.387821Q2.85931 0.441069 2.91866 0.50042Q2.97801 0.559771 3.03126 0.624654Q3.08451 0.689536 3.13114 0.759326Q3.17777 0.829115 3.21734 0.90314Q3.2569 0.977164 3.28902 1.05471Q3.32114 1.13226 3.34551 1.21258Q3.36988 1.2929 3.38625 1.37522Q3.40263 1.45754 3.41085 1.54107Q3.41908 1.6246 3.41908 1.70854L3.41908 6.83916Q3.41908 6.9231 3.41085 7.00663Q3.40263 7.09016 3.38625 7.17248Q3.36988 7.2548 3.34551 7.33512Q3.32114 7.41544 3.28902 7.49299Q3.2569 7.57054 3.21734 7.64456Q3.17777 7.71858 3.13114 7.78837Q3.08451 7.85816 3.03126 7.92305Q2.97801 7.98793 2.91866 8.04728Q2.85931 8.10663 2.79443 8.15988Q2.72954 8.21313 2.65975 8.25976Q2.58996 8.30639 2.51594 8.34596Q2.44192 8.38552 2.36437 8.41764Q2.28682 8.44977 2.2065 8.47413Q2.12618 8.4985 2.04386 8.51487Q1.96154 8.53124 1.87801 8.53947Q1.79447 8.5477 1.71054 8.5477L1.70854 8.5477Q1.6246 8.5477 1.54107 8.53947Q1.45754 8.53124 1.37522 8.51487Q1.2929 8.4985 1.21258 8.47413Q1.13226 8.44977 1.05471 8.41764Q0.977164 8.38552 0.90314 8.34596Q0.829115 8.30639 0.759326 8.25976Q0.689536 8.21313 0.624654 8.15988Q0.559771 8.10663 0.50042 8.04728Q0.441069 7.98793 0.387821 7.92305Q0.334573 7.85816 0.287941 7.78837Q0.241309 7.71858 0.201742 7.64456Q0.162175 7.57054 0.130055 7.49299Q0.0979342 7.41544 0.0735691 7.33512Q0.049204 7.2548 0.0328291 7.17248Q0.0164542 7.09016 0.00822708 7.00663Q0 6.9231 0 6.83916L0 1.70854Q0 1.6246 0.00822708 1.54107Q0.0164542 1.45754 0.0328291 1.37522Q0.049204 1.2929 0.0735691 1.21258Q0.0979342 1.13226 0.130055 1.05471Q0.162175 0.977164 0.201742 0.90314Q0.241309 0.829115 0.287941 0.759326Q0.334573 0.689536 0.387821 0.624654Q0.441069 0.559771 0.50042 0.50042Q0.559771 0.441069 0.624654 0.387821Q0.689536 0.334573 0.759326 0.287941Q0.829115 0.241309 0.90314 0.201742Q0.977164 0.162175 1.05471 0.130055Q1.13226 0.0979342 1.21258 0.0735691Q1.2929 0.049204 1.37522 0.0328291Q1.45754 0.0164542 1.54107 0.00822708Q1.6246 0 1.70854 0L1.70854 0Z" transform="translate(6.838159 0)" id="矩形" fill="url(#gradient_3)" fill-rule="evenodd" stroke="none" />
                  <path d="M1.70854 0L1.71054 0Q1.79447 0 1.87801 0.00822708Q1.96154 0.0164542 2.04386 0.0328291Q2.12618 0.049204 2.2065 0.0735691Q2.28682 0.0979342 2.36437 0.130055Q2.44192 0.162175 2.51594 0.201742Q2.58996 0.241309 2.65975 0.287941Q2.72954 0.334573 2.79443 0.387821Q2.85931 0.441068 2.91866 0.50042Q2.97801 0.559771 3.03126 0.624653Q3.08451 0.689536 3.13114 0.759326Q3.17777 0.829115 3.21734 0.903139Q3.2569 0.977164 3.28902 1.05471Q3.32114 1.13226 3.34551 1.21258Q3.36987 1.2929 3.38625 1.37522Q3.40263 1.45754 3.41085 1.54107Q3.41908 1.6246 3.41908 1.70854L3.41908 6.83916Q3.41908 6.9231 3.41085 7.00663Q3.40263 7.09016 3.38625 7.17248Q3.36988 7.2548 3.34551 7.33512Q3.32114 7.41544 3.28902 7.49299Q3.2569 7.57054 3.21734 7.64456Q3.17777 7.71858 3.13114 7.78837Q3.08451 7.85816 3.03126 7.92305Q2.97801 7.98793 2.91866 8.04728Q2.85931 8.10663 2.79443 8.15988Q2.72954 8.21313 2.65975 8.25976Q2.58996 8.30639 2.51594 8.34596Q2.44192 8.38552 2.36437 8.41764Q2.28682 8.44977 2.2065 8.47413Q2.12618 8.4985 2.04386 8.51487Q1.96154 8.53124 1.87801 8.53947Q1.79447 8.5477 1.71054 8.5477L1.70854 8.5477Q1.6246 8.5477 1.54107 8.53947Q1.45754 8.53124 1.37522 8.51487Q1.2929 8.4985 1.21258 8.47413Q1.13226 8.44977 1.05471 8.41764Q0.977164 8.38552 0.903139 8.34596Q0.829115 8.30639 0.759326 8.25976Q0.689536 8.21313 0.624653 8.15988Q0.559771 8.10663 0.50042 8.04728Q0.441068 7.98793 0.387821 7.92305Q0.334573 7.85816 0.287941 7.78837Q0.241309 7.71858 0.201742 7.64456Q0.162175 7.57054 0.130055 7.49299Q0.0979342 7.41544 0.0735691 7.33512Q0.049204 7.2548 0.0328291 7.17248Q0.0164542 7.09016 0.00822708 7.00663Q0 6.9231 0 6.83916L0 1.70854Q0 1.6246 0.00822708 1.54107Q0.0164542 1.45754 0.0328291 1.37522Q0.049204 1.2929 0.0735691 1.21258Q0.0979342 1.13226 0.130055 1.05471Q0.162175 0.977164 0.201742 0.903139Q0.241309 0.829115 0.287941 0.759326Q0.334573 0.689536 0.387821 0.624653Q0.441068 0.559771 0.50042 0.50042Q0.559771 0.441068 0.624653 0.387821Q0.689536 0.334573 0.759326 0.287941Q0.829115 0.241309 0.903139 0.201742Q0.977164 0.162175 1.05471 0.130055Q1.13226 0.0979342 1.21258 0.0735691Q1.2929 0.049204 1.37522 0.0328291Q1.45754 0.0164542 1.54107 0.00822708Q1.6246 0 1.70854 0L1.70854 0Z" transform="translate(17.0954 0)" id="矩形" fill="url(#gradient_3)" fill-rule="evenodd" stroke="none" />
                </g>
              </g>
            </g>
          </g>
        </g>
      </g>
    </g>
  </g>
</svg>