<?xml version="1.0" encoding="utf-8"?>
<svg width="62px" height="62px" viewBox="0 0 62 62" version="1.1" xmlns:xlink="http://www.w3.org/1999/xlink" xmlns="http://www.w3.org/2000/svg">
  <defs>
    <linearGradient x1="0.5" y1="1.0917857" x2="0.5" y2="0.15740311" id="gradient_1">
      <stop offset="0" stop-color="#12FEE0" />
      <stop offset="1" stop-color="#026DB2" stop-opacity="0.60784316" />
    </linearGradient>
    <linearGradient x1="0.5" y1="0.8130206" x2="1" y2="0.12489624" id="gradient_2">
      <stop offset="0" stop-color="#0796BF" />
      <stop offset="1" stop-color="#0BC2CD" />
    </linearGradient>
    <linearGradient x1="0.8805051" y1="0.18298312" x2="0" y2="1.8981408" id="gradient_3">
      <stop offset="0" stop-color="#12FEE0" />
      <stop offset="0.19069187" stop-color="#11FADF" />
      <stop offset="1" stop-color="#026DB2" />
    </linearGradient>
    <linearGradient x1="1" y1="0.08060739" x2="0" y2="1.8981408" id="gradient_4">
      <stop offset="0" stop-color="#12FEE0" />
      <stop offset="1" stop-color="#026DB2" />
    </linearGradient>
    <filter filterUnits="userSpaceOnUse" color-interpolation-filters="sRGB" id="filter_1">
      <feFlood flood-opacity="0" result="BackgroundImageFix" />
      <feBlend mode="normal" in="SourceGraphic" in2="BackgroundImageFix" result="shape" />
      <feGaussianBlur stdDeviation="1.7333333" result="effect0_gaussianBlur" />
    </filter>
    <filter filterUnits="userSpaceOnUse" color-interpolation-filters="sRGB" id="filter_2">
      <feFlood flood-opacity="0" result="BackgroundImageFix" />
      <feBlend mode="normal" in="SourceGraphic" in2="BackgroundImageFix" result="shape" />
      <feGaussianBlur stdDeviation="3.2755373" result="effect0_gaussianBlur" />
    </filter>
    <path d="M0 0L63 0L63 63L0 63L0 0Z" id="path_1" />
    <path d="M0 0L6.61757 0L6.61757 14.1736Q6.61757 14.3361 6.6096 14.4983Q6.60163 14.6605 6.58571 14.8222Q6.56979 14.9838 6.54596 15.1445Q6.52212 15.3052 6.49044 15.4645Q6.45875 15.6238 6.41928 15.7813Q6.37982 15.9389 6.33267 16.0943Q6.28551 16.2498 6.23079 16.4027Q6.17607 16.5556 6.11392 16.7057Q6.05176 16.8558 5.98231 17.0026Q5.91286 17.1494 5.8363 17.2927Q5.75973 17.4359 5.67622 17.5752Q5.59272 17.7146 5.50248 17.8496Q5.41224 17.9847 5.31548 18.1151Q5.21872 18.2456 5.11568 18.3711Q5.01264 18.4967 4.90356 18.6171Q4.79448 18.7374 4.67962 18.8523Q4.56477 18.9671 4.44442 19.0762Q4.32407 19.1853 4.19851 19.2883Q4.07295 19.3914 3.94249 19.4881Q3.81202 19.5849 3.67697 19.6751Q3.54192 19.7654 3.4026 19.8489Q3.26328 19.9324 3.12003 20.0089Q2.97678 20.0855 2.82995 20.1549Q2.68312 20.2244 2.53305 20.2866Q2.38299 20.3487 2.23006 20.4034Q2.07712 20.4582 1.92169 20.5053Q1.76626 20.5525 1.6087 20.5919Q1.45114 20.6314 1.29183 20.6631Q1.13252 20.6948 0.971853 20.7186Q0.811183 20.7424 0.649538 20.7584Q0.487892 20.7743 0.32566 20.7822Q0.163428 20.7902 0.000999928 20.7902L0 20.7902L0 0Z" id="path_2" />
    <path d="M0 0L6.61757 0L6.61757 17.5917L6.61657 17.5917Q6.45415 17.5917 6.29191 17.5837Q6.12968 17.5758 5.96804 17.5599Q5.80639 17.5439 5.64572 17.5201Q5.48505 17.4963 5.32574 17.4646Q5.16644 17.4329 5.00888 17.3934Q4.85132 17.354 4.69588 17.3068Q4.54045 17.2597 4.38752 17.2049Q4.23458 17.1502 4.08452 17.0881Q3.93446 17.0259 3.78762 16.9565Q3.64079 16.887 3.49754 16.8104Q3.35429 16.7339 3.21497 16.6504Q3.07566 16.5669 2.9406 16.4766Q2.80555 16.3864 2.67508 16.2896Q2.54462 16.1929 2.41906 16.0898Q2.29351 15.9868 2.17315 15.8777Q2.0528 15.7686 1.93795 15.6538Q1.8231 15.5389 1.71402 15.4186Q1.60494 15.2982 1.50189 15.1727Q1.39885 15.0471 1.30209 14.9166Q1.20533 14.7862 1.11509 14.6511Q1.02485 14.5161 0.941349 14.3767Q0.857845 14.2374 0.781277 14.0942Q0.704709 13.9509 0.635262 13.8041Q0.565815 13.6573 0.503657 13.5072Q0.441498 13.3571 0.386778 13.2042Q0.332058 13.0513 0.284907 12.8958Q0.237757 12.7404 0.19829 12.5828Q0.158824 12.4253 0.127136 12.266Q0.0954475 12.1067 0.0716144 11.946Q0.0477813 11.7853 0.0318606 11.6237Q0.0159399 11.462 0.00796995 11.2998Q0 11.1376 0 10.9751L0 0Z" id="path_3" />
    <clipPath id="mask_1">
      <use xlink:href="#path_1" />
    </clipPath>
    <clipPath id="mask_2">
      <use xlink:href="#path_2" />
    </clipPath>
    <clipPath id="mask_3">
      <use xlink:href="#path_3" />
    </clipPath>
  </defs>
  <g id="webicon-餐饮">
    <g id="编组-25" transform="translate(-0.5 -0.5)">
      <path d="M0 0L63 0L63 63L0 63L0 0Z" id="蒙版" fill="none" fill-rule="evenodd" stroke="none" />
      <g clip-path="url(#mask_1)">
        <g id="编组-25" transform="translate(5.6 4.2000003)">
          <path d="M26.0015 18.9C40.3618 18.9 52.0031 14.6691 52.0031 9.45C52.0031 4.23091 40.3618 0 26.0015 0C11.6413 0 0 4.23091 0 9.45C0 14.6691 11.6413 18.9 26.0015 18.9Z" transform="translate(2.1884716E-13 32.9)" id="椭圆形备份" fill="#000000" fill-opacity="0.2" fill-rule="evenodd" stroke="none" filter="url(#filter_1)" />
          <g id="编组-21">
            <path d="M26.0015 23.8933C40.3618 23.8933 52.0031 18.5446 52.0031 11.9467C52.0031 5.3487 40.3618 0 26.0015 0C11.6413 0 0 5.3487 0 11.9467C0 18.5446 11.6413 23.8933 26.0015 23.8933Z" transform="translate(0 12.6)" id="椭圆形备份" fill="#000000" fill-opacity="0.2" fill-rule="evenodd" stroke="none" filter="url(#filter_2)" />
            <g id="编组-12" transform="translate(2.8 0)">
              <path d="M23.1615 44.7789C35.9533 44.7789 46.323 34.7548 46.323 22.3895C46.323 10.0241 35.9533 0 23.1615 0C10.3698 0 0 10.0241 0 22.3895C0 34.7548 10.3698 44.7789 23.1615 44.7789Z" transform="translate(0.35 4.797741)" id="椭圆形" fill="url(#gradient_1)" fill-rule="evenodd" stroke="none" />
              <g id="分组-31" transform="translate(5.31318 0)">
                <g id="路径-55" transform="translate(21.507114 25.58795)">
                  <path d="M0 0L6.61757 0L6.61757 14.1736Q6.61757 14.3361 6.6096 14.4983Q6.60163 14.6605 6.58571 14.8222Q6.56979 14.9838 6.54596 15.1445Q6.52212 15.3052 6.49044 15.4645Q6.45875 15.6238 6.41928 15.7813Q6.37982 15.9389 6.33267 16.0943Q6.28551 16.2498 6.23079 16.4027Q6.17607 16.5556 6.11392 16.7057Q6.05176 16.8558 5.98231 17.0026Q5.91286 17.1494 5.8363 17.2927Q5.75973 17.4359 5.67622 17.5752Q5.59272 17.7146 5.50248 17.8496Q5.41224 17.9847 5.31548 18.1151Q5.21872 18.2456 5.11568 18.3711Q5.01264 18.4967 4.90356 18.6171Q4.79448 18.7374 4.67962 18.8523Q4.56477 18.9671 4.44442 19.0762Q4.32407 19.1853 4.19851 19.2883Q4.07295 19.3914 3.94249 19.4881Q3.81202 19.5849 3.67697 19.6751Q3.54192 19.7654 3.4026 19.8489Q3.26328 19.9324 3.12003 20.0089Q2.97678 20.0855 2.82995 20.1549Q2.68312 20.2244 2.53305 20.2866Q2.38299 20.3487 2.23006 20.4034Q2.07712 20.4582 1.92169 20.5053Q1.76626 20.5525 1.6087 20.5919Q1.45114 20.6314 1.29183 20.6631Q1.13252 20.6948 0.971853 20.7186Q0.811183 20.7424 0.649538 20.7584Q0.487892 20.7743 0.32566 20.7822Q0.163428 20.7902 0.000999928 20.7902L0 20.7902L0 0Z" id="Mask" fill="url(#gradient_2)" fill-rule="evenodd" stroke="none" />
                  <g clip-path="url(#mask_2)">
                    <path d="M0 0L7.02067 6.28064L7.02067 0L0.498822 0" transform="translate(0 1.599247)" id="路径-55" fill="#0B0B0B" fill-opacity="0.3" fill-rule="evenodd" stroke="none" />
                  </g>
                </g>
                <path d="M4.96407 0.000857733Q4.96318 0.0279237 4.96318 0.0550041L4.96318 11.1414Q4.96318 11.2227 4.97114 11.3035Q4.9791 11.3843 4.99495 11.464Q5.0108 11.5437 5.03437 11.6214Q5.05795 11.6991 5.08904 11.7742Q5.12012 11.8492 5.15841 11.9208Q5.1967 11.9925 5.24183 12.06Q5.28695 12.1276 5.33848 12.1903Q5.39001 12.2531 5.44745 12.3106Q5.50488 12.368 5.56767 12.4195Q5.63046 12.4711 5.698 12.5162Q5.76553 12.5613 5.83717 12.5996Q5.9088 12.6379 5.98385 12.669Q6.05889 12.7001 6.13662 12.7236Q6.21435 12.7472 6.29401 12.7631Q6.37368 12.7789 6.45451 12.7869Q6.53535 12.7948 6.61657 12.7948L6.61857 12.7948Q6.6998 12.7948 6.78063 12.7869Q6.86147 12.7789 6.94113 12.7631Q7.0208 12.7472 7.09853 12.7236Q7.17626 12.7001 7.2513 12.669Q7.32634 12.6379 7.39798 12.5996Q7.46961 12.5613 7.53715 12.5162Q7.60469 12.4711 7.66747 12.4195Q7.73026 12.368 7.7877 12.3106Q7.84514 12.2531 7.89666 12.1903Q7.94819 12.1276 7.99332 12.06Q8.03845 11.9925 8.07674 11.9208Q8.11503 11.8492 8.14611 11.7742Q8.17719 11.6991 8.20077 11.6214Q8.22435 11.5437 8.2402 11.464Q8.25604 11.3843 8.26401 11.3035Q8.27197 11.2227 8.27197 11.1414L8.27197 0.0550041Q8.27197 0.0279237 8.27108 0.000857733L13.236 0.000857733Q13.2351 0.0279236 13.2351 0.055004L13.2351 11.1414Q13.2351 11.2227 13.2431 11.3035Q13.2511 11.3843 13.2669 11.464Q13.2828 11.5437 13.3063 11.6214Q13.3299 11.6991 13.361 11.7742Q13.3921 11.8492 13.4304 11.9208Q13.4687 11.9925 13.5138 12.06Q13.5589 12.1276 13.6105 12.1903Q13.662 12.2531 13.7194 12.3106Q13.7768 12.368 13.8396 12.4195Q13.9024 12.4711 13.97 12.5162Q14.0375 12.5613 14.1091 12.5996Q14.1808 12.6379 14.2558 12.669Q14.3309 12.7001 14.4086 12.7236Q14.4863 12.7472 14.566 12.7631Q14.6456 12.7789 14.7265 12.7869Q14.8073 12.7948 14.8885 12.7948L14.8905 12.7948Q14.9718 12.7948 15.0526 12.7869Q15.1334 12.7789 15.2131 12.7631Q15.2928 12.7472 15.3705 12.7236Q15.4482 12.7001 15.5233 12.669Q15.5983 12.6379 15.6699 12.5996Q15.7416 12.5613 15.8091 12.5162Q15.8767 12.4711 15.9394 12.4195Q16.0022 12.368 16.0597 12.3106Q16.1171 12.2531 16.1686 12.1903Q16.2202 12.1276 16.2653 12.06Q16.3104 11.9925 16.3487 11.9208Q16.387 11.8492 16.4181 11.7742Q16.4492 11.6991 16.4727 11.6214Q16.4963 11.5437 16.5122 11.464Q16.528 11.3843 16.536 11.3035Q16.5439 11.2227 16.5439 11.1414L16.5439 0.055004Q16.5439 0.0279236 16.543 0.000857733L21.5071 0.000857733L21.5071 14.8363Q21.5071 15.1002 21.4942 15.3639Q21.4812 15.6275 21.4553 15.8902Q21.4295 16.1529 21.3907 16.414Q21.352 16.6751 21.3005 16.934Q21.249 17.1929 21.1849 17.4489Q21.1207 17.705 21.0441 17.9576Q20.9675 18.2101 20.8786 18.4587Q20.7896 18.7072 20.6886 18.9511Q20.5876 19.1949 20.4748 19.4336Q20.3619 19.6722 20.2375 19.905Q20.113 20.1378 19.9773 20.3642Q19.8416 20.5906 19.695 20.81Q19.5483 21.0295 19.3911 21.2415Q19.2339 21.4536 19.0664 21.6576Q18.8989 21.8616 18.7217 22.0572Q18.5444 22.2528 18.3578 22.4395Q18.1711 22.6261 17.9755 22.8034Q17.78 22.9806 17.5759 23.1481Q17.3719 23.3155 17.1598 23.4728Q16.9478 23.63 16.7284 23.7767Q16.5089 23.9233 16.2825 24.059Q16.0561 24.1947 15.8233 24.3192Q15.5905 24.4436 15.3519 24.5564Q15.1132 24.6693 14.8694 24.7703Q14.6255 24.8713 14.377 24.9603Q14.1285 25.0492 13.8759 25.1258Q13.6233 25.2024 13.3672 25.2666Q13.1112 25.3307 12.8523 25.3822Q12.5934 25.4337 12.3323 25.4724Q12.0712 25.5112 11.8085 25.537Q11.5458 25.5629 11.2822 25.5759Q11.0185 25.5888 10.7546 25.5888L10.7526 25.5888Q10.4886 25.5888 10.225 25.5759Q9.96131 25.5629 9.69862 25.537Q9.43593 25.5112 9.17483 25.4724Q8.91372 25.4337 8.65484 25.3822Q8.39595 25.3307 8.1399 25.2666Q7.88385 25.2024 7.63125 25.1258Q7.37866 25.0492 7.13013 24.9603Q6.8816 24.8713 6.63773 24.7703Q6.39386 24.6693 6.15525 24.5564Q5.91663 24.4436 5.68384 24.3192Q5.45104 24.1947 5.22464 24.059Q4.99823 23.9233 4.77876 23.7767Q4.55928 23.63 4.34727 23.4728Q4.13525 23.3155 3.93121 23.1481Q3.72716 22.9806 3.53158 22.8034Q3.336 22.6261 3.14935 22.4395Q2.9627 22.2528 2.78544 22.0572Q2.60817 21.8616 2.44072 21.6576Q2.27326 21.4536 2.11602 21.2415Q1.95878 21.0295 1.81213 20.81Q1.66548 20.5906 1.52978 20.3642Q1.39408 20.1378 1.26965 19.905Q1.14522 19.6722 1.03236 19.4336Q0.919503 19.1949 0.81849 18.9511Q0.717476 18.7072 0.628551 18.4587Q0.539625 18.2101 0.463001 17.9576Q0.386378 17.705 0.322241 17.4489Q0.258103 17.1929 0.206607 16.934Q0.155111 16.6751 0.11638 16.414Q0.0776491 16.1529 0.0517765 15.8902Q0.0259038 15.6275 0.0129519 15.3639Q0 15.1002 0 14.8363L0 0.000857733L4.96407 0.000857733Z" transform="translate(14.889541 1.5983891)" id="合并形状" fill="url(#gradient_3)" fill-rule="evenodd" stroke="none" />
                <g id="路径-55" transform="translate(4.96318 28.786444)">
                  <path d="M0 0L6.61757 0L6.61757 17.5917L6.61657 17.5917Q6.45415 17.5917 6.29191 17.5837Q6.12968 17.5758 5.96804 17.5599Q5.80639 17.5439 5.64572 17.5201Q5.48505 17.4963 5.32574 17.4646Q5.16644 17.4329 5.00888 17.3934Q4.85132 17.354 4.69588 17.3068Q4.54045 17.2597 4.38752 17.2049Q4.23458 17.1502 4.08452 17.0881Q3.93446 17.0259 3.78762 16.9565Q3.64079 16.887 3.49754 16.8104Q3.35429 16.7339 3.21497 16.6504Q3.07566 16.5669 2.9406 16.4766Q2.80555 16.3864 2.67508 16.2896Q2.54462 16.1929 2.41906 16.0898Q2.29351 15.9868 2.17315 15.8777Q2.0528 15.7686 1.93795 15.6538Q1.8231 15.5389 1.71402 15.4186Q1.60494 15.2982 1.50189 15.1727Q1.39885 15.0471 1.30209 14.9166Q1.20533 14.7862 1.11509 14.6511Q1.02485 14.5161 0.941349 14.3767Q0.857845 14.2374 0.781277 14.0942Q0.704709 13.9509 0.635262 13.8041Q0.565815 13.6573 0.503657 13.5072Q0.441498 13.3571 0.386778 13.2042Q0.332058 13.0513 0.284907 12.8958Q0.237757 12.7404 0.19829 12.5828Q0.158824 12.4253 0.127136 12.266Q0.0954475 12.1067 0.0716144 11.946Q0.0477813 11.7853 0.0318606 11.6237Q0.0159399 11.462 0.00796995 11.2998Q0 11.1376 0 10.9751L0 0Z" id="Mask" fill="url(#gradient_2)" fill-rule="evenodd" stroke="none" />
                  <g clip-path="url(#mask_3)">
                    <path d="M0 0L10.3295 6.28064L10.3295 0L0.733913 0" transform="translate(-3.3087869 0)" id="路径-55" fill="#0B0B0B" fill-opacity="0.3" fill-rule="evenodd" stroke="none" />
                  </g>
                </g>
                <path d="M11.5798 0L11.5808 0L11.5808 30.3857L0 30.3857L0 11.5798Q0 11.2955 0.0139483 11.0116Q0.0278966 10.7276 0.0557597 10.4447Q0.0836227 10.1618 0.125333 9.88065Q0.167044 9.59946 0.222502 9.32065Q0.277959 9.04185 0.347031 8.7661Q0.416102 8.49035 0.49862 8.21833Q0.581139 7.9463 0.676905 7.67865Q0.772672 7.411 0.881456 7.14837Q0.99024 6.88574 1.11178 6.62877Q1.23332 6.3718 1.36732 6.12109Q1.50133 5.87039 1.64747 5.62657Q1.79361 5.38275 1.95154 5.14639Q2.10947 4.91003 2.27881 4.6817Q2.44815 4.45338 2.62848 4.23363Q2.80882 4.01389 2.99972 3.80327Q3.19062 3.59264 3.39163 3.39163Q3.59264 3.19062 3.80327 2.99972Q4.01389 2.80882 4.23364 2.62848Q4.45338 2.44815 4.6817 2.27881Q4.91003 2.10947 5.14639 1.95154Q5.38275 1.79361 5.62657 1.64747Q5.87039 1.50132 6.12109 1.36732Q6.3718 1.23332 6.62877 1.11178Q6.88574 0.99024 7.14837 0.881456Q7.411 0.772672 7.67865 0.676905Q7.9463 0.581139 8.21833 0.49862Q8.49035 0.416102 8.7661 0.347031Q9.04185 0.277959 9.32065 0.222502Q9.59946 0.167044 9.88065 0.125333Q10.1618 0.0836227 10.4447 0.0557597Q10.7276 0.0278966 11.0116 0.0139483Q11.2955 0 11.5798 0Z" id="矩形" fill="url(#gradient_4)" fill-rule="evenodd" stroke="none" />
              </g>
            </g>
          </g>
        </g>
      </g>
    </g>
  </g>
</svg>