<?xml version="1.0" encoding="UTF-8"?>
<svg width="48px" height="48px" viewBox="0 0 1024 1024" version="1.1" xmlns="http://www.w3.org/2000/svg" xmlns:xlink="http://www.w3.org/1999/xlink">
    <title>图标</title>
    <defs>
        <linearGradient x1="79.0969077%" y1="76.7552878%" x2="22.5182254%" y2="13.1627961%" id="linearGradient-1">
            <stop stop-color="#00F8F0" offset="0%"></stop>
            <stop stop-color="#00D6FC" offset="100%"></stop>
        </linearGradient>
        <linearGradient x1="50%" y1="93.1100039%" x2="50%" y2="4.8452391%" id="linearGradient-2">
            <stop stop-color="#287FFF" offset="0%"></stop>
            <stop stop-color="#6FABFF" offset="100%"></stop>
        </linearGradient>
    </defs>
    <g id="图标" stroke="none" stroke-width="1" fill="none" fill-rule="evenodd">
        <g id="编组-2" transform="translate(465.874426, 536.000000) scale(-1, 1) translate(-465.874426, -536.000000) translate(124.874426, 188.000000)">
            <path d="M526.501179,15.0287366 C591.201253,53.8203915 607.164472,159.812054 576.352195,282.709142 L576.340963,282.709846 C604.002371,366.089736 681.269841,470.839267 681.269841,470.839267 C604.492433,475.848851 536.445232,486.192479 477.128238,501.870151 C376.157107,652.048795 239.805783,731.060725 156.262321,680.971306 C119.849455,659.139563 98.873403,616.023025 92.9845362,560.587128 C101.123605,599.560588 118.918186,629.730312 146.562829,646.304968 C230.749099,696.779791 374.403852,602.062053 467.424699,434.746979 C560.445546,267.431906 567.607385,90.8783108 483.421114,40.4034881 C434.593077,11.128091 365.759843,30.6954712 298.403708,84.9414293 L294.970987,87.7305781 C377.493211,10.298289 465.893492,-21.3092819 526.501179,15.0287366 Z" id="形状结合" fill="url(#linearGradient-1)"></path>
            <path d="M404.945487,463.155203 C361.199375,531.152908 312.174877,579.079152 268.376155,606.758873 C251.169073,617.633328 232.534877,626.392495 212.473566,633.036376 L21.2351021,633.03399 C9.48943623,633.03399 4.54747351e-13,623.544553 4.54747351e-13,611.798888 L4.54747351e-13,611.798888 L4.54747351e-13,463.153173 Z M84.9404082,521.549704 C70.2749159,521.549704 58.3965307,533.428089 58.3965307,548.093581 C58.3965307,562.759074 70.2749159,574.637459 84.9404082,574.637459 C99.6059006,574.637459 111.484286,562.759074 111.484286,548.093581 C111.484286,533.428089 99.6059006,521.549704 84.9404082,521.549704 Z M467.172245,250.802153 L467.176773,337.482963 C457.172819,365.513827 444.780944,393.492855 430.067777,420.683718 L4.54747351e-13,420.682969 L4.54747351e-13,250.802153 L467.172245,250.802153 Z M84.9404082,309.198683 C70.2749159,309.198683 58.3965307,321.077068 58.3965307,335.742561 C58.3965307,350.408053 70.2749159,362.286438 84.9404082,362.286438 C99.6059006,362.286438 111.484286,350.408053 111.484286,335.742561 C111.484286,321.077068 99.6059006,309.198683 84.9404082,309.198683 Z M445.937143,38.451132 C457.682809,38.451132 467.172245,47.9405682 467.172245,59.686234 L467.172245,59.686234 L467.172245,208.331948 L4.54747351e-13,208.331948 L4.54747351e-13,59.686234 C4.54747351e-13,47.9405682 9.48943623,38.451132 21.2351021,38.451132 L21.2351021,38.451132 Z M84.9404082,96.8476626 C70.2749159,96.8476626 58.3965307,108.726048 58.3965307,123.39154 C58.3965307,138.057033 70.2749159,149.935418 84.9404082,149.935418 C99.6059006,149.935418 111.484286,138.057033 111.484286,123.39154 C111.484286,108.726048 99.6059006,96.8476626 84.9404082,96.8476626 Z" id="形状结合" fill="url(#linearGradient-2)"></path>
        </g>
    </g>
</svg>