<svg t="1636949490090" class="icon" viewBox="0 0 1024 1024" version="1.1" xmlns="http://www.w3.org/2000/svg" p-id="61972" width="200" height="200"><path d="M1001.97 1023.968H26.03c-4.422 0-8-3.578-8-8v-111.992c0-68.668 35.568-94.962 101.196-119.492 69.098-25.812 124.048-49.67 158.906-68.996a7.96 7.96 0 0 1 10.874 3.094c2.148 3.876 0.75 8.75-3.11 10.874-35.544 19.734-91.244 43.936-161.076 70.028-61.512 22.966-90.792 44.466-90.792 104.494v103.994h959.942v-103.994c0-60.028-29.28-81.528-90.792-104.494-71.028-26.592-125.226-50.136-161.084-70.012a8.004 8.004 0 0 1-3.124-10.874 7.992 7.992 0 0 1 10.876-3.124c35.17 19.498 88.65 42.73 158.944 69.012 65.622 24.53 101.182 50.824 101.182 119.492v111.992a7.998 7.998 0 0 1-8.002 7.998z" fill="#ffffff" p-id="61973"></path><path d="M514 735.986c-111.094 0-287.982-157.428-287.982-343.978 0-4.422 3.578-8 8-8 4.42 0 8 3.578 8 8 0 177.878 167.06 327.98 271.984 327.98 104.932 0 271.984-150.102 271.984-327.98 0-4.422 3.578-8 8-8a7.994 7.994 0 0 1 7.998 8c-0.002 186.55-176.898 343.978-287.984 343.978zM514.476 799.982c-4.414 0-8.078-3.578-8.078-7.998 0-4.422 3.5-8 7.922-8h0.156c4.422 0 8 3.578 8 8a7.994 7.994 0 0 1-8 7.998zM514.476 863.978c-4.414 0-8.078-3.578-8.078-7.998 0-4.422 3.5-8 7.922-8h0.156c4.422 0 8 3.578 8 8a7.994 7.994 0 0 1-8 7.998zM514.476 927.974c-4.414 0-8.078-3.578-8.078-7.998 0-4.422 3.5-8 7.922-8h0.156c4.422 0 8 3.578 8 8a7.994 7.994 0 0 1-8 7.998zM514.476 991.97c-4.414 0-8.078-3.578-8.078-7.998 0-4.422 3.5-8 7.922-8h0.156c4.422 0 8 3.578 8 8a7.994 7.994 0 0 1-8 7.998z" fill="#ffffff" p-id="61974"></path><path d="M713.988 703.988c-4.422 0-8-3.578-8-8v-31.998c0-4.42 3.578-7.998 8-7.998s8 3.578 8 7.998v31.998c0 4.422-3.578 8-8 8z" fill="#ffffff" p-id="61975"></path><path d="M633.992 815.982a7.906 7.906 0 0 1-4.656-1.5 7.984 7.984 0 0 1-1.844-11.156l79.996-111.994a8.028 8.028 0 0 1 11.156-1.844 7.984 7.984 0 0 1 1.844 11.156l-79.996 111.994a7.944 7.944 0 0 1-6.5 3.344z" fill="#ffffff" p-id="61976"></path><path d="M633.992 815.982a8.08 8.08 0 0 1-3.578-0.844l-95.992-47.998a7.996 7.996 0 0 1-3.578-10.734 8.008 8.008 0 0 1 10.732-3.578l95.994 47.998a8 8 0 1 1-3.578 15.156zM314.012 703.988c-4.42 0-8-3.578-8-8v-31.998a7.994 7.994 0 0 1 8-7.998c4.422 0 8 3.578 8 7.998v31.998c0 4.422-3.578 8-8 8z" fill="#ffffff" p-id="61977"></path><path d="M394.016 815.982a7.972 7.972 0 0 1-6.516-3.344l-79.996-111.994a7.994 7.994 0 0 1 1.86-11.156 7.986 7.986 0 0 1 11.156 1.844l79.996 111.994a7.996 7.996 0 0 1-1.858 11.156 7.904 7.904 0 0 1-4.642 1.5z" fill="#ffffff" p-id="61978"></path><path d="M394.016 815.982a8.012 8.012 0 0 1-7.164-4.422 7.996 7.996 0 0 1 3.578-10.734l95.994-47.998a8.008 8.008 0 0 1 10.734 3.578 7.996 7.996 0 0 1-3.578 10.734l-95.994 47.998a8.096 8.096 0 0 1-3.57 0.844zM234.018 368.008a8.008 8.008 0 0 1-7.968-7.258c-10.04-107.19 12.928-192.34 68.262-253.094C375.32 18.702 508.188 0.032 605.4 0.032c56.78 0 98.948 6.554 103.572 7.304a8.002 8.002 0 0 1 1.766 15.296c-57.214 23.546-47.934 80.496-43.154 99.056a127.208 127.208 0 0 1 5.562-0.124c22.732 0 65.606 5.54 97.354 42.624 34.858 40.716 45.42 107.016 31.388 197.058a7.994 7.994 0 0 1-6.344 6.608c-3.31 0.704-6.624-0.82-8.388-3.67l-66.762-109.166c-25.312 9.804-120.086 44.044-208.676 44.044-88.322 0-181.934-34.052-207.316-43.966l-63.472 108.94a7.996 7.996 0 0 1-6.912 3.972z m489.674-130.914c2.704 0 5.328 1.382 6.826 3.828l58.56 95.736c8.452-73.886-1.86-128.344-30.718-162.068-27.592-32.216-65.23-37.028-85.212-37.028-6.204 0-10.06 0.492-10.31 0.532-3.75 0.476-7.406-1.71-8.656-5.304-0.282-0.812-24.688-73.52 28.436-112.72-18.138-1.928-45.28-4.038-77.214-4.038-93.986 0-222.19 17.764-299.262 102.4-47.724 52.396-69.854 124.666-65.934 215.066l53.848-92.424a8.008 8.008 0 0 1 10-3.36c1.086 0.454 109.766 45.348 207.666 45.348 97.932 0 207.816-44.904 208.926-45.356a7.82 7.82 0 0 1 3.044-0.612zM537.998 1023.968a7.994 7.994 0 0 1-7.998-8V791.984c0-4.422 3.578-8 7.998-8 4.422 0 8 3.578 8 8v223.984c0 4.422-3.578 8-8 8zM490.002 1023.968c-4.422 0-8-3.578-8-8V791.984c0-4.422 3.578-8 8-8s8 3.578 8 8v223.984a7.996 7.996 0 0 1-8 8zM825.98 959.972h-159.99c-4.42 0-7.998-3.578-7.998-8s3.578-7.998 7.998-7.998h159.99c4.422 0 8 3.576 8 7.998s-3.578 8-8 8z" fill="#ffffff" p-id="61979"></path><path d="M665.99 991.97a7.994 7.994 0 0 1-7.998-7.998v-32a7.994 7.994 0 0 1 7.998-7.998c4.422 0 8 3.576 8 7.998v32a7.994 7.994 0 0 1-8 7.998z" fill="#ffffff" p-id="61980"></path><path d="M825.98 991.97a7.994 7.994 0 0 1-7.998-7.998v-32c0-4.422 3.576-7.998 7.998-7.998s8 3.576 8 7.998v32a7.994 7.994 0 0 1-8 7.998z" fill="#ffffff" p-id="61981"></path><path d="M681.99 943.974a8 8 0 0 1-5.656-13.656l47.998-47.998a8 8 0 0 1 11.31 11.312l-47.996 47.998a7.964 7.964 0 0 1-5.656 2.344z" fill="#ffffff" p-id="61982"></path><path d="M777.984 943.974a7.976 7.976 0 0 1-5.656-2.344l-47.996-47.998a8 8 0 0 1 11.31-11.312l47.998 47.998a8 8 0 0 1-5.656 13.656z" fill="#ffffff" p-id="61983"></path><path d="M809.982 943.974a7.976 7.976 0 0 1-5.656-2.344l-47.998-47.998a8 8 0 1 1 11.312-11.312l47.998 47.998a8 8 0 0 1-5.656 13.656z" fill="#ffffff" p-id="61984"></path></svg>