<?xml version="1.0" encoding="UTF-8"?>
<svg width="48px" height="48px" viewBox="0 0 1024 1024" version="1.1" xmlns="http://www.w3.org/2000/svg" xmlns:xlink="http://www.w3.org/1999/xlink">
    <title>图标</title>
    <defs>
        <linearGradient x1="50%" y1="93.1100039%" x2="50%" y2="4.8452391%" id="linearGradient-1">
            <stop stop-color="#287FFF" offset="0%"></stop>
            <stop stop-color="#6FABFF" offset="100%"></stop>
        </linearGradient>
        <linearGradient x1="90.7276492%" y1="59.3499266%" x2="11.533092%" y2="37.1268381%" id="linearGradient-2">
            <stop stop-color="#00F8F0" offset="0%"></stop>
            <stop stop-color="#00D6FC" offset="100%"></stop>
        </linearGradient>
    </defs>
    <g id="图标" stroke="none" stroke-width="1" fill="none" fill-rule="evenodd">
        <path d="M158.774754,369.119876 C160.08566,366.689447 163.118612,365.781894 165.549041,367.092799 L165.549041,367.092799 L477.346471,535.267604 C480.58211,537.012817 482.599261,540.392674 482.599261,544.068968 L482.599261,544.068968 L482.599261,885.34073 C482.599261,886.161848 482.397036,886.970329 482.01045,887.694751 C480.71036,890.130983 477.681472,891.052008 475.24524,889.751918 L475.24524,889.751918 L163.467394,723.372348 C160.20996,721.634026 158.175436,718.242212 158.175436,714.549971 L158.175436,714.549971 L158.175436,371.493481 C158.175436,370.664841 158.381382,369.849192 158.774754,369.119876 Z M860.824564,366.561664 C863.585987,366.561664 865.824564,368.800241 865.824564,371.561664 L865.824564,371.561664 L865.824564,712.632865 C865.824564,716.308217 863.808437,719.687365 860.574085,721.432981 L860.574085,721.432981 L548.808903,889.696135 C548.079299,890.08991 547.263226,890.296077 546.434142,890.296077 C543.672718,890.296077 541.434142,888.057501 541.434142,885.296077 L541.434142,885.296077 L541.434142,546.996033 C541.434142,543.345265 543.423634,539.984624 546.624385,538.228693 L546.624385,538.228693 L858.419685,367.177995 C859.156749,366.773642 859.983871,366.561664 860.824564,366.561664 Z M507.303008,136.890585 C510.010807,135.614265 513.147978,135.618149 515.852608,136.901169 L515.852608,136.901169 L851.220547,295.992762 C852.154855,296.435978 852.928755,297.157984 853.435654,298.059331 C854.789252,300.466244 853.93537,303.514741 851.528456,304.868339 L851.528456,304.868339 L516.443908,493.312819 C513.420898,495.012896 509.732856,495.025203 506.698567,493.345338 L506.698567,493.345338 L167.754905,305.696966 C166.836528,305.188527 166.101468,304.403941 165.653905,303.454407 C164.476542,300.956553 165.547012,297.9772 168.044866,296.799837 L168.044866,296.799837 Z M641.171397,216.339844 C640.681512,213.622221 638.081313,211.816283 635.36369,212.306168 L635.36369,212.306168 L309.499696,271.047183 C308.002513,271.317069 306.709644,272.253906 305.986934,273.592594 C304.675103,276.022524 305.581501,279.055821 308.011431,280.367652 L308.011431,280.367652 L553.07586,412.669054 C553.336318,412.809667 553.60438,412.935716 553.878809,413.04662 C557.975221,414.702093 562.638045,412.723321 564.293518,408.62691 L564.293518,408.62691 L640.886462,219.100296 C641.240006,218.225464 641.338789,217.268447 641.171397,216.339844 Z" id="形状结合" fill="url(#linearGradient-1)"></path>
        <path d="M393.945022,280.052115 L580.950101,246.342137 C583.667724,245.852251 586.267923,247.65819 586.757808,250.375812 C586.925201,251.304416 586.826417,252.261433 586.472873,253.136265 L543.053453,360.57613 C541.39798,364.672542 536.735156,366.651313 532.638744,364.99584 C532.364316,364.884936 532.096254,364.758887 531.835795,364.618275 L392.456758,289.372584 C390.026827,288.060753 389.120429,285.027456 390.43226,282.597526 C391.15497,281.258838 392.447839,280.322001 393.945022,280.052115 Z" id="路径-41" fill="url(#linearGradient-2)"></path>
    </g>
</svg>