<?xml version="1.0" encoding="UTF-8"?>
<svg width="48px" height="48px" viewBox="0 0 1024 1024" version="1.1" xmlns="http://www.w3.org/2000/svg" xmlns:xlink="http://www.w3.org/1999/xlink">
    <title>面性程序</title>
    <defs>
        <linearGradient x1="50%" y1="90.0596145%" x2="50%" y2="4.8452391%" id="linearGradient-1">
            <stop stop-color="#1976FF" offset="0%"></stop>
            <stop stop-color="#3C97FF" offset="100%"></stop>
        </linearGradient>
        <linearGradient x1="100%" y1="18.9241066%" x2="54.6971799%" y2="61.8745924%" id="linearGradient-2">
            <stop stop-color="#00F8F0" offset="0%"></stop>
            <stop stop-color="#00D6FC" offset="100%"></stop>
        </linearGradient>
    </defs>
    <g id="面性程序" stroke="none" stroke-width="1" fill="none" fill-rule="evenodd">
        <path d="M522,116.157283 L849.143555,305.033702 C855.331577,308.606358 859.143555,315.208899 859.143555,322.35421 L859.143555,700.10705 C859.143555,707.252361 855.331577,713.854902 849.143555,717.427558 L522,906.303977 C515.811978,909.876633 508.188022,909.876633 502,906.303977 L174.856445,717.427558 C168.668423,713.854902 164.856445,707.252361 164.856445,700.10705 L164.856445,322.35421 C164.856445,315.208899 168.668423,308.606358 174.856445,305.033702 L502,116.157283 C508.188022,112.584627 515.811978,112.584627 522,116.157283 Z M739.165081,380.667846 C716.846184,341.594515 667.077951,328.012362 628.00462,350.331259 L628.00462,350.331259 L513.081474,410.524468 C510.070828,412.101352 506.465376,412.041205 503.509002,410.364778 L503.509002,410.364778 L398.080375,350.580941 C359.715014,328.49854 310.564656,341.111703 287.64488,379.211811 C264.448963,417.770957 276.90332,467.833328 315.462466,491.029245 L315.462466,491.029245 L418.273332,549.271105 C421.427638,551.058004 423.367815,554.412118 423.344122,558.037321 L423.344122,558.037321 L422.515197,684.870953 C423.331261,729.163028 459.490883,764.817115 503.977963,764.817115 C548.976389,764.817115 585.45482,728.338683 585.45482,683.340258 L585.45482,683.340258 L586.294684,562.108107 C586.320249,558.417878 588.376112,555.041666 591.642888,553.325094 L591.642888,553.325094 L710.196951,491.029245 C748.216435,468.339873 761.221402,419.28149 739.165081,380.667846 Z" id="形状结合" fill="url(#linearGradient-1)"></path>
        <path d="M696.998004,403.758537 C707.756973,422.594089 701.413212,446.524534 682.867489,457.592301 L682.199962,457.982079 L550.508837,533.201948 C547.392155,534.982147 545.46859,538.296131 545.468626,541.885395 L545.469988,677.204052 L545.469988,677.204052 C545.469988,699.15407 527.675983,716.948074 505.725966,716.948074 C484.025381,716.948074 466.38689,699.556181 465.988818,677.950718 L465.981944,677.204052 L465.980579,539.80924 C465.980545,536.300743 464.141823,533.048892 461.135389,531.240329 L341.024581,458.985973 L341.024581,458.985973 C322.215614,447.671115 316.140438,423.25093 327.455296,404.441963 C338.635453,385.856912 362.610763,379.704271 381.325203,390.475961 L381.999306,390.872677 L502.355492,463.275006 C505.457781,465.141241 509.326488,465.184965 512.470164,463.389322 L642.774462,388.960495 L642.774462,388.960495 C661.834247,378.073444 686.110953,384.698753 696.998004,403.758537 Z" id="路径" fill="url(#linearGradient-2)"></path>
    </g>
</svg>