<?xml version="1.0" encoding="UTF-8"?>
<svg width="48px" height="48px" viewBox="0 0 1024 1024" version="1.1" xmlns="http://www.w3.org/2000/svg" xmlns:xlink="http://www.w3.org/1999/xlink">
    <title>图标</title>
    <defs>
        <linearGradient x1="50%" y1="93.1100039%" x2="50%" y2="4.8452391%" id="linearGradient-1">
            <stop stop-color="#287FFF" offset="0%"></stop>
            <stop stop-color="#6FABFF" offset="100%"></stop>
        </linearGradient>
        <linearGradient x1="82.2311853%" y1="9.48681624%" x2="53.0279135%" y2="65.4807308%" id="linearGradient-2">
            <stop stop-color="#00F8F0" offset="0%"></stop>
            <stop stop-color="#00D6FC" offset="100%"></stop>
        </linearGradient>
    </defs>
    <g id="图标" stroke="none" stroke-width="1" fill="none" fill-rule="evenodd">
        <g id="地图" transform="translate(151.000000, 151.000000)">
            <path d="M719.655255,589.187702 L645.744861,354.258977 C639.100417,333.13593 619.558164,318.777778 597.466043,318.777778 L540.186089,318.777778 C502.677347,379.594073 450.283036,429.540405 415.385585,462.669059 L409.344716,468.411681 C396.315402,480.849683 379.008861,487.779607 361.017764,487.762868 C342.970202,487.77406 325.613267,480.808372 312.558441,468.315166 L305.54285,461.631526 C268.74409,426.657029 217.673476,377.929195 181.211657,318.777778 L119.936547,318.777778 C97.6313677,318.777778 77.9538356,333.411586 71.4892583,354.813937 L2.2358687,584.08449 C-9.15995379,621.809654 24.8229426,657.580396 62.9574331,648.025445 L219.093441,608.888755 C233.963161,605.162208 249.716287,608.39186 261.93307,617.671588 L385.734786,711.700987 C398.100143,721.095768 414.081021,724.284097 429.09186,720.351112 L684.168157,653.55091 C697.583678,650.040608 708.975463,641.166456 715.682965,629.00101 C722.390467,616.835565 723.826347,602.444086 719.655255,589.187702 L719.655255,589.187702 Z" id="路径" fill="url(#linearGradient-1)"></path>
            <path d="M346.844499,432.996621 C355.368453,441.115157 368.694635,441.163196 377.21859,433.056669 C432.012009,380.994752 538.333333,284.280884 538.333333,176.349985 C538.333333,78.9515662 459.408719,0 362.055556,0 C264.702392,0 185.777778,78.9515662 185.777778,176.337975 C185.777778,284.629164 290.730467,379.577611 346.844499,432.996621 L346.844499,432.996621 Z M362.055556,110.140678 C385.912062,109.819251 408.095177,122.366759 420.117151,142.982249 C432.139125,163.597739 432.139125,189.090222 420.117151,209.705712 C408.095177,230.321202 385.912062,242.86871 362.055556,242.547283 C325.852561,242.059508 296.760222,212.562624 296.760222,176.343981 C296.760222,140.125338 325.852561,110.628453 362.055556,110.140678 Z" id="形状" fill="url(#linearGradient-2)"></path>
        </g>
    </g>
</svg>