<?xml version="1.0" encoding="UTF-8"?>
<svg width="48px" height="48px" viewBox="0 0 1024 1024" version="1.1" xmlns="http://www.w3.org/2000/svg" xmlns:xlink="http://www.w3.org/1999/xlink">
    <title>图标</title>
    <defs>
        <linearGradient x1="50%" y1="90.0596145%" x2="50%" y2="4.8452391%" id="linearGradient-1">
            <stop stop-color="#1976FF" offset="0%"></stop>
            <stop stop-color="#3C97FF" offset="100%"></stop>
        </linearGradient>
        <linearGradient x1="100%" y1="9.48681624%" x2="54.6971799%" y2="65.4807308%" id="linearGradient-2">
            <stop stop-color="#00F8F0" offset="0%"></stop>
            <stop stop-color="#00D6FC" offset="100%"></stop>
        </linearGradient>
    </defs>
    <g id="图标" stroke="none" stroke-width="1" fill="none" fill-rule="evenodd">
        <g id="编组" transform="translate(115.958937, 112.000000)">
            <path d="M394.698551,323.641304 C394.698551,335.557448 385.038608,345.217391 373.122464,345.217391 L243.665942,345.217391 C231.749798,345.217391 222.089855,335.557448 222.089855,323.641304 L222.089855,194.184783 C222.089855,182.268639 231.749798,172.608696 243.665942,172.608696 L373.122464,172.608696 C385.038608,172.608696 394.698551,162.948752 394.698551,151.032609 L394.698551,21.576087 C394.698551,9.65994317 404.358494,0 416.274638,0 L545.731159,0 C557.647303,0 567.307246,9.65994317 567.307246,21.576087 L567.307246,151.032609 C567.307246,162.948752 557.647303,172.608696 545.731159,172.608696 L416.274638,172.608696 C404.358494,172.608696 394.698551,182.268639 394.698551,194.184783 L394.698551,323.641304 Z" id="路径" fill="url(#linearGradient-1)"></path>
            <path d="M396.616425,772.040338 C396.616425,783.956482 386.956482,793.616425 375.040338,793.616425 L245.583816,793.616425 C233.667673,793.616425 224.007729,783.956482 224.007729,772.040338 L224.007729,642.583816 C224.007729,630.667673 233.667673,621.007729 245.583816,621.007729 L375.040338,621.007729 C386.956482,621.007729 396.616425,611.347786 396.616425,599.431643 L396.616425,469.975121 C396.616425,458.058977 406.276368,448.399034 418.192512,448.399034 L547.649034,448.399034 C559.565178,448.399034 569.225121,458.058977 569.225121,469.975121 L569.225121,599.431643 C569.225121,611.347786 559.565178,621.007729 547.649034,621.007729 L418.192512,621.007729 C406.276368,621.007729 396.616425,630.667673 396.616425,642.583816 L396.616425,772.040338 Z" id="路径备份-3" fill="url(#linearGradient-2)"></path>
            <path d="M172.608696,543.046135 C172.608696,554.962279 162.948752,564.622222 151.032609,564.622222 L21.576087,564.622222 C9.65994317,564.622222 5.68434189e-14,554.962279 5.68434189e-14,543.046135 L5.68434189e-14,413.589614 C5.68434189e-14,401.67347 9.65994317,392.013527 21.576087,392.013527 L151.032609,392.013527 C162.948752,392.013527 172.608696,382.353583 172.608696,370.43744 L172.608696,240.980918 C172.608696,229.064774 182.268639,219.404831 194.184783,219.404831 L323.641304,219.404831 C335.557448,219.404831 345.217391,229.064774 345.217391,240.980918 L345.217391,370.43744 C345.217391,382.353583 335.557448,392.013527 323.641304,392.013527 L194.184783,392.013527 C182.268639,392.013527 172.608696,401.67347 172.608696,413.589614 L172.608696,543.046135 Z" id="路径备份" fill="url(#linearGradient-1)" transform="translate(172.608696, 392.013527) rotate(90.000000) translate(-172.608696, -392.013527) "></path>
            <path d="M618.70628,549.950483 C618.70628,561.866627 609.046337,571.52657 597.130193,571.52657 L467.673671,571.52657 C455.757528,571.52657 446.097585,561.866627 446.097585,549.950483 L446.097585,420.493961 C446.097585,408.577818 455.757528,398.917874 467.673671,398.917874 L597.130193,398.917874 C609.046337,398.917874 618.70628,389.257931 618.70628,377.341787 L618.70628,247.885266 C618.70628,235.969122 628.366223,226.309179 640.282367,226.309179 L769.738889,226.309179 C781.655033,226.309179 791.314976,235.969122 791.314976,247.885266 L791.314976,377.341787 C791.314976,389.257931 781.655033,398.917874 769.738889,398.917874 L640.282367,398.917874 C628.366223,398.917874 618.70628,408.577818 618.70628,420.493961 L618.70628,549.950483 Z" id="路径备份-2" fill="url(#linearGradient-2)" transform="translate(618.706280, 398.917874) rotate(90.000000) translate(-618.706280, -398.917874) "></path>
        </g>
    </g>
</svg>